%
M48
M72
T01C0.03543
T02C0.04000
T03C0.05500
T04C0.06700
T05C0.07874
T06C0.13000
%
T01
X66000Y48000
X56000Y52500
X66000Y58000
X56000Y62500
X66000Y68000
X56000Y72500
X66000Y78000
X56000Y82500
T02
X86000Y106000
X96000Y106000
X106000Y106000
X106000Y26000
X96000Y26000
X86000Y26000
T03
X156000Y36000
X156000Y56000
X156000Y76000
X156000Y96000
T04
X43000Y96000
X43000Y34000
T05
X11000Y11000
X11000Y121000
X176000Y121000
X176000Y11000
T06
X31000Y42000
X31500Y88000
M30
