G75*
%MOIN*%
%OFA0B0*%
%FSLAX25Y25*%
%IPPOS*%
%LPD*%
%AMOC8*
5,1,8,0,0,1.08239X$1,22.5*
%
%ADD10C,0.00000*%
D10*
X0001000Y0001000D02*
X0001000Y0130961D01*
X0184701Y0130961D01*
X0184701Y0001000D01*
X0001000Y0001000D01*
X0007063Y0011000D02*
X0007065Y0011125D01*
X0007071Y0011250D01*
X0007081Y0011374D01*
X0007095Y0011498D01*
X0007112Y0011622D01*
X0007134Y0011745D01*
X0007160Y0011867D01*
X0007189Y0011989D01*
X0007222Y0012109D01*
X0007260Y0012228D01*
X0007300Y0012347D01*
X0007345Y0012463D01*
X0007393Y0012578D01*
X0007445Y0012692D01*
X0007501Y0012804D01*
X0007560Y0012914D01*
X0007622Y0013022D01*
X0007688Y0013129D01*
X0007757Y0013233D01*
X0007830Y0013334D01*
X0007905Y0013434D01*
X0007984Y0013531D01*
X0008066Y0013625D01*
X0008151Y0013717D01*
X0008238Y0013806D01*
X0008329Y0013892D01*
X0008422Y0013975D01*
X0008518Y0014056D01*
X0008616Y0014133D01*
X0008716Y0014207D01*
X0008819Y0014278D01*
X0008924Y0014345D01*
X0009032Y0014410D01*
X0009141Y0014470D01*
X0009252Y0014528D01*
X0009365Y0014581D01*
X0009479Y0014631D01*
X0009595Y0014678D01*
X0009712Y0014720D01*
X0009831Y0014759D01*
X0009951Y0014795D01*
X0010072Y0014826D01*
X0010194Y0014854D01*
X0010316Y0014877D01*
X0010440Y0014897D01*
X0010564Y0014913D01*
X0010688Y0014925D01*
X0010813Y0014933D01*
X0010938Y0014937D01*
X0011062Y0014937D01*
X0011187Y0014933D01*
X0011312Y0014925D01*
X0011436Y0014913D01*
X0011560Y0014897D01*
X0011684Y0014877D01*
X0011806Y0014854D01*
X0011928Y0014826D01*
X0012049Y0014795D01*
X0012169Y0014759D01*
X0012288Y0014720D01*
X0012405Y0014678D01*
X0012521Y0014631D01*
X0012635Y0014581D01*
X0012748Y0014528D01*
X0012859Y0014470D01*
X0012969Y0014410D01*
X0013076Y0014345D01*
X0013181Y0014278D01*
X0013284Y0014207D01*
X0013384Y0014133D01*
X0013482Y0014056D01*
X0013578Y0013975D01*
X0013671Y0013892D01*
X0013762Y0013806D01*
X0013849Y0013717D01*
X0013934Y0013625D01*
X0014016Y0013531D01*
X0014095Y0013434D01*
X0014170Y0013334D01*
X0014243Y0013233D01*
X0014312Y0013129D01*
X0014378Y0013022D01*
X0014440Y0012914D01*
X0014499Y0012804D01*
X0014555Y0012692D01*
X0014607Y0012578D01*
X0014655Y0012463D01*
X0014700Y0012347D01*
X0014740Y0012228D01*
X0014778Y0012109D01*
X0014811Y0011989D01*
X0014840Y0011867D01*
X0014866Y0011745D01*
X0014888Y0011622D01*
X0014905Y0011498D01*
X0014919Y0011374D01*
X0014929Y0011250D01*
X0014935Y0011125D01*
X0014937Y0011000D01*
X0014935Y0010875D01*
X0014929Y0010750D01*
X0014919Y0010626D01*
X0014905Y0010502D01*
X0014888Y0010378D01*
X0014866Y0010255D01*
X0014840Y0010133D01*
X0014811Y0010011D01*
X0014778Y0009891D01*
X0014740Y0009772D01*
X0014700Y0009653D01*
X0014655Y0009537D01*
X0014607Y0009422D01*
X0014555Y0009308D01*
X0014499Y0009196D01*
X0014440Y0009086D01*
X0014378Y0008978D01*
X0014312Y0008871D01*
X0014243Y0008767D01*
X0014170Y0008666D01*
X0014095Y0008566D01*
X0014016Y0008469D01*
X0013934Y0008375D01*
X0013849Y0008283D01*
X0013762Y0008194D01*
X0013671Y0008108D01*
X0013578Y0008025D01*
X0013482Y0007944D01*
X0013384Y0007867D01*
X0013284Y0007793D01*
X0013181Y0007722D01*
X0013076Y0007655D01*
X0012968Y0007590D01*
X0012859Y0007530D01*
X0012748Y0007472D01*
X0012635Y0007419D01*
X0012521Y0007369D01*
X0012405Y0007322D01*
X0012288Y0007280D01*
X0012169Y0007241D01*
X0012049Y0007205D01*
X0011928Y0007174D01*
X0011806Y0007146D01*
X0011684Y0007123D01*
X0011560Y0007103D01*
X0011436Y0007087D01*
X0011312Y0007075D01*
X0011187Y0007067D01*
X0011062Y0007063D01*
X0010938Y0007063D01*
X0010813Y0007067D01*
X0010688Y0007075D01*
X0010564Y0007087D01*
X0010440Y0007103D01*
X0010316Y0007123D01*
X0010194Y0007146D01*
X0010072Y0007174D01*
X0009951Y0007205D01*
X0009831Y0007241D01*
X0009712Y0007280D01*
X0009595Y0007322D01*
X0009479Y0007369D01*
X0009365Y0007419D01*
X0009252Y0007472D01*
X0009141Y0007530D01*
X0009031Y0007590D01*
X0008924Y0007655D01*
X0008819Y0007722D01*
X0008716Y0007793D01*
X0008616Y0007867D01*
X0008518Y0007944D01*
X0008422Y0008025D01*
X0008329Y0008108D01*
X0008238Y0008194D01*
X0008151Y0008283D01*
X0008066Y0008375D01*
X0007984Y0008469D01*
X0007905Y0008566D01*
X0007830Y0008666D01*
X0007757Y0008767D01*
X0007688Y0008871D01*
X0007622Y0008978D01*
X0007560Y0009086D01*
X0007501Y0009196D01*
X0007445Y0009308D01*
X0007393Y0009422D01*
X0007345Y0009537D01*
X0007300Y0009653D01*
X0007260Y0009772D01*
X0007222Y0009891D01*
X0007189Y0010011D01*
X0007160Y0010133D01*
X0007134Y0010255D01*
X0007112Y0010378D01*
X0007095Y0010502D01*
X0007081Y0010626D01*
X0007071Y0010750D01*
X0007065Y0010875D01*
X0007063Y0011000D01*
X0024500Y0042000D02*
X0024502Y0042161D01*
X0024508Y0042321D01*
X0024518Y0042482D01*
X0024532Y0042642D01*
X0024550Y0042802D01*
X0024571Y0042961D01*
X0024597Y0043120D01*
X0024627Y0043278D01*
X0024660Y0043435D01*
X0024698Y0043592D01*
X0024739Y0043747D01*
X0024784Y0043901D01*
X0024833Y0044054D01*
X0024886Y0044206D01*
X0024942Y0044357D01*
X0025003Y0044506D01*
X0025066Y0044654D01*
X0025134Y0044800D01*
X0025205Y0044944D01*
X0025279Y0045086D01*
X0025357Y0045227D01*
X0025439Y0045365D01*
X0025524Y0045502D01*
X0025612Y0045636D01*
X0025704Y0045768D01*
X0025799Y0045898D01*
X0025897Y0046026D01*
X0025998Y0046151D01*
X0026102Y0046273D01*
X0026209Y0046393D01*
X0026319Y0046510D01*
X0026432Y0046625D01*
X0026548Y0046736D01*
X0026667Y0046845D01*
X0026788Y0046950D01*
X0026912Y0047053D01*
X0027038Y0047153D01*
X0027166Y0047249D01*
X0027297Y0047342D01*
X0027431Y0047432D01*
X0027566Y0047519D01*
X0027704Y0047602D01*
X0027843Y0047682D01*
X0027985Y0047758D01*
X0028128Y0047831D01*
X0028273Y0047900D01*
X0028420Y0047966D01*
X0028568Y0048028D01*
X0028718Y0048086D01*
X0028869Y0048141D01*
X0029022Y0048192D01*
X0029176Y0048239D01*
X0029331Y0048282D01*
X0029487Y0048321D01*
X0029643Y0048357D01*
X0029801Y0048388D01*
X0029959Y0048416D01*
X0030118Y0048440D01*
X0030278Y0048460D01*
X0030438Y0048476D01*
X0030598Y0048488D01*
X0030759Y0048496D01*
X0030920Y0048500D01*
X0031080Y0048500D01*
X0031241Y0048496D01*
X0031402Y0048488D01*
X0031562Y0048476D01*
X0031722Y0048460D01*
X0031882Y0048440D01*
X0032041Y0048416D01*
X0032199Y0048388D01*
X0032357Y0048357D01*
X0032513Y0048321D01*
X0032669Y0048282D01*
X0032824Y0048239D01*
X0032978Y0048192D01*
X0033131Y0048141D01*
X0033282Y0048086D01*
X0033432Y0048028D01*
X0033580Y0047966D01*
X0033727Y0047900D01*
X0033872Y0047831D01*
X0034015Y0047758D01*
X0034157Y0047682D01*
X0034296Y0047602D01*
X0034434Y0047519D01*
X0034569Y0047432D01*
X0034703Y0047342D01*
X0034834Y0047249D01*
X0034962Y0047153D01*
X0035088Y0047053D01*
X0035212Y0046950D01*
X0035333Y0046845D01*
X0035452Y0046736D01*
X0035568Y0046625D01*
X0035681Y0046510D01*
X0035791Y0046393D01*
X0035898Y0046273D01*
X0036002Y0046151D01*
X0036103Y0046026D01*
X0036201Y0045898D01*
X0036296Y0045768D01*
X0036388Y0045636D01*
X0036476Y0045502D01*
X0036561Y0045365D01*
X0036643Y0045227D01*
X0036721Y0045086D01*
X0036795Y0044944D01*
X0036866Y0044800D01*
X0036934Y0044654D01*
X0036997Y0044506D01*
X0037058Y0044357D01*
X0037114Y0044206D01*
X0037167Y0044054D01*
X0037216Y0043901D01*
X0037261Y0043747D01*
X0037302Y0043592D01*
X0037340Y0043435D01*
X0037373Y0043278D01*
X0037403Y0043120D01*
X0037429Y0042961D01*
X0037450Y0042802D01*
X0037468Y0042642D01*
X0037482Y0042482D01*
X0037492Y0042321D01*
X0037498Y0042161D01*
X0037500Y0042000D01*
X0037498Y0041839D01*
X0037492Y0041679D01*
X0037482Y0041518D01*
X0037468Y0041358D01*
X0037450Y0041198D01*
X0037429Y0041039D01*
X0037403Y0040880D01*
X0037373Y0040722D01*
X0037340Y0040565D01*
X0037302Y0040408D01*
X0037261Y0040253D01*
X0037216Y0040099D01*
X0037167Y0039946D01*
X0037114Y0039794D01*
X0037058Y0039643D01*
X0036997Y0039494D01*
X0036934Y0039346D01*
X0036866Y0039200D01*
X0036795Y0039056D01*
X0036721Y0038914D01*
X0036643Y0038773D01*
X0036561Y0038635D01*
X0036476Y0038498D01*
X0036388Y0038364D01*
X0036296Y0038232D01*
X0036201Y0038102D01*
X0036103Y0037974D01*
X0036002Y0037849D01*
X0035898Y0037727D01*
X0035791Y0037607D01*
X0035681Y0037490D01*
X0035568Y0037375D01*
X0035452Y0037264D01*
X0035333Y0037155D01*
X0035212Y0037050D01*
X0035088Y0036947D01*
X0034962Y0036847D01*
X0034834Y0036751D01*
X0034703Y0036658D01*
X0034569Y0036568D01*
X0034434Y0036481D01*
X0034296Y0036398D01*
X0034157Y0036318D01*
X0034015Y0036242D01*
X0033872Y0036169D01*
X0033727Y0036100D01*
X0033580Y0036034D01*
X0033432Y0035972D01*
X0033282Y0035914D01*
X0033131Y0035859D01*
X0032978Y0035808D01*
X0032824Y0035761D01*
X0032669Y0035718D01*
X0032513Y0035679D01*
X0032357Y0035643D01*
X0032199Y0035612D01*
X0032041Y0035584D01*
X0031882Y0035560D01*
X0031722Y0035540D01*
X0031562Y0035524D01*
X0031402Y0035512D01*
X0031241Y0035504D01*
X0031080Y0035500D01*
X0030920Y0035500D01*
X0030759Y0035504D01*
X0030598Y0035512D01*
X0030438Y0035524D01*
X0030278Y0035540D01*
X0030118Y0035560D01*
X0029959Y0035584D01*
X0029801Y0035612D01*
X0029643Y0035643D01*
X0029487Y0035679D01*
X0029331Y0035718D01*
X0029176Y0035761D01*
X0029022Y0035808D01*
X0028869Y0035859D01*
X0028718Y0035914D01*
X0028568Y0035972D01*
X0028420Y0036034D01*
X0028273Y0036100D01*
X0028128Y0036169D01*
X0027985Y0036242D01*
X0027843Y0036318D01*
X0027704Y0036398D01*
X0027566Y0036481D01*
X0027431Y0036568D01*
X0027297Y0036658D01*
X0027166Y0036751D01*
X0027038Y0036847D01*
X0026912Y0036947D01*
X0026788Y0037050D01*
X0026667Y0037155D01*
X0026548Y0037264D01*
X0026432Y0037375D01*
X0026319Y0037490D01*
X0026209Y0037607D01*
X0026102Y0037727D01*
X0025998Y0037849D01*
X0025897Y0037974D01*
X0025799Y0038102D01*
X0025704Y0038232D01*
X0025612Y0038364D01*
X0025524Y0038498D01*
X0025439Y0038635D01*
X0025357Y0038773D01*
X0025279Y0038914D01*
X0025205Y0039056D01*
X0025134Y0039200D01*
X0025066Y0039346D01*
X0025003Y0039494D01*
X0024942Y0039643D01*
X0024886Y0039794D01*
X0024833Y0039946D01*
X0024784Y0040099D01*
X0024739Y0040253D01*
X0024698Y0040408D01*
X0024660Y0040565D01*
X0024627Y0040722D01*
X0024597Y0040880D01*
X0024571Y0041039D01*
X0024550Y0041198D01*
X0024532Y0041358D01*
X0024518Y0041518D01*
X0024508Y0041679D01*
X0024502Y0041839D01*
X0024500Y0042000D01*
X0025000Y0088000D02*
X0025002Y0088161D01*
X0025008Y0088321D01*
X0025018Y0088482D01*
X0025032Y0088642D01*
X0025050Y0088802D01*
X0025071Y0088961D01*
X0025097Y0089120D01*
X0025127Y0089278D01*
X0025160Y0089435D01*
X0025198Y0089592D01*
X0025239Y0089747D01*
X0025284Y0089901D01*
X0025333Y0090054D01*
X0025386Y0090206D01*
X0025442Y0090357D01*
X0025503Y0090506D01*
X0025566Y0090654D01*
X0025634Y0090800D01*
X0025705Y0090944D01*
X0025779Y0091086D01*
X0025857Y0091227D01*
X0025939Y0091365D01*
X0026024Y0091502D01*
X0026112Y0091636D01*
X0026204Y0091768D01*
X0026299Y0091898D01*
X0026397Y0092026D01*
X0026498Y0092151D01*
X0026602Y0092273D01*
X0026709Y0092393D01*
X0026819Y0092510D01*
X0026932Y0092625D01*
X0027048Y0092736D01*
X0027167Y0092845D01*
X0027288Y0092950D01*
X0027412Y0093053D01*
X0027538Y0093153D01*
X0027666Y0093249D01*
X0027797Y0093342D01*
X0027931Y0093432D01*
X0028066Y0093519D01*
X0028204Y0093602D01*
X0028343Y0093682D01*
X0028485Y0093758D01*
X0028628Y0093831D01*
X0028773Y0093900D01*
X0028920Y0093966D01*
X0029068Y0094028D01*
X0029218Y0094086D01*
X0029369Y0094141D01*
X0029522Y0094192D01*
X0029676Y0094239D01*
X0029831Y0094282D01*
X0029987Y0094321D01*
X0030143Y0094357D01*
X0030301Y0094388D01*
X0030459Y0094416D01*
X0030618Y0094440D01*
X0030778Y0094460D01*
X0030938Y0094476D01*
X0031098Y0094488D01*
X0031259Y0094496D01*
X0031420Y0094500D01*
X0031580Y0094500D01*
X0031741Y0094496D01*
X0031902Y0094488D01*
X0032062Y0094476D01*
X0032222Y0094460D01*
X0032382Y0094440D01*
X0032541Y0094416D01*
X0032699Y0094388D01*
X0032857Y0094357D01*
X0033013Y0094321D01*
X0033169Y0094282D01*
X0033324Y0094239D01*
X0033478Y0094192D01*
X0033631Y0094141D01*
X0033782Y0094086D01*
X0033932Y0094028D01*
X0034080Y0093966D01*
X0034227Y0093900D01*
X0034372Y0093831D01*
X0034515Y0093758D01*
X0034657Y0093682D01*
X0034796Y0093602D01*
X0034934Y0093519D01*
X0035069Y0093432D01*
X0035203Y0093342D01*
X0035334Y0093249D01*
X0035462Y0093153D01*
X0035588Y0093053D01*
X0035712Y0092950D01*
X0035833Y0092845D01*
X0035952Y0092736D01*
X0036068Y0092625D01*
X0036181Y0092510D01*
X0036291Y0092393D01*
X0036398Y0092273D01*
X0036502Y0092151D01*
X0036603Y0092026D01*
X0036701Y0091898D01*
X0036796Y0091768D01*
X0036888Y0091636D01*
X0036976Y0091502D01*
X0037061Y0091365D01*
X0037143Y0091227D01*
X0037221Y0091086D01*
X0037295Y0090944D01*
X0037366Y0090800D01*
X0037434Y0090654D01*
X0037497Y0090506D01*
X0037558Y0090357D01*
X0037614Y0090206D01*
X0037667Y0090054D01*
X0037716Y0089901D01*
X0037761Y0089747D01*
X0037802Y0089592D01*
X0037840Y0089435D01*
X0037873Y0089278D01*
X0037903Y0089120D01*
X0037929Y0088961D01*
X0037950Y0088802D01*
X0037968Y0088642D01*
X0037982Y0088482D01*
X0037992Y0088321D01*
X0037998Y0088161D01*
X0038000Y0088000D01*
X0037998Y0087839D01*
X0037992Y0087679D01*
X0037982Y0087518D01*
X0037968Y0087358D01*
X0037950Y0087198D01*
X0037929Y0087039D01*
X0037903Y0086880D01*
X0037873Y0086722D01*
X0037840Y0086565D01*
X0037802Y0086408D01*
X0037761Y0086253D01*
X0037716Y0086099D01*
X0037667Y0085946D01*
X0037614Y0085794D01*
X0037558Y0085643D01*
X0037497Y0085494D01*
X0037434Y0085346D01*
X0037366Y0085200D01*
X0037295Y0085056D01*
X0037221Y0084914D01*
X0037143Y0084773D01*
X0037061Y0084635D01*
X0036976Y0084498D01*
X0036888Y0084364D01*
X0036796Y0084232D01*
X0036701Y0084102D01*
X0036603Y0083974D01*
X0036502Y0083849D01*
X0036398Y0083727D01*
X0036291Y0083607D01*
X0036181Y0083490D01*
X0036068Y0083375D01*
X0035952Y0083264D01*
X0035833Y0083155D01*
X0035712Y0083050D01*
X0035588Y0082947D01*
X0035462Y0082847D01*
X0035334Y0082751D01*
X0035203Y0082658D01*
X0035069Y0082568D01*
X0034934Y0082481D01*
X0034796Y0082398D01*
X0034657Y0082318D01*
X0034515Y0082242D01*
X0034372Y0082169D01*
X0034227Y0082100D01*
X0034080Y0082034D01*
X0033932Y0081972D01*
X0033782Y0081914D01*
X0033631Y0081859D01*
X0033478Y0081808D01*
X0033324Y0081761D01*
X0033169Y0081718D01*
X0033013Y0081679D01*
X0032857Y0081643D01*
X0032699Y0081612D01*
X0032541Y0081584D01*
X0032382Y0081560D01*
X0032222Y0081540D01*
X0032062Y0081524D01*
X0031902Y0081512D01*
X0031741Y0081504D01*
X0031580Y0081500D01*
X0031420Y0081500D01*
X0031259Y0081504D01*
X0031098Y0081512D01*
X0030938Y0081524D01*
X0030778Y0081540D01*
X0030618Y0081560D01*
X0030459Y0081584D01*
X0030301Y0081612D01*
X0030143Y0081643D01*
X0029987Y0081679D01*
X0029831Y0081718D01*
X0029676Y0081761D01*
X0029522Y0081808D01*
X0029369Y0081859D01*
X0029218Y0081914D01*
X0029068Y0081972D01*
X0028920Y0082034D01*
X0028773Y0082100D01*
X0028628Y0082169D01*
X0028485Y0082242D01*
X0028343Y0082318D01*
X0028204Y0082398D01*
X0028066Y0082481D01*
X0027931Y0082568D01*
X0027797Y0082658D01*
X0027666Y0082751D01*
X0027538Y0082847D01*
X0027412Y0082947D01*
X0027288Y0083050D01*
X0027167Y0083155D01*
X0027048Y0083264D01*
X0026932Y0083375D01*
X0026819Y0083490D01*
X0026709Y0083607D01*
X0026602Y0083727D01*
X0026498Y0083849D01*
X0026397Y0083974D01*
X0026299Y0084102D01*
X0026204Y0084232D01*
X0026112Y0084364D01*
X0026024Y0084498D01*
X0025939Y0084635D01*
X0025857Y0084773D01*
X0025779Y0084914D01*
X0025705Y0085056D01*
X0025634Y0085200D01*
X0025566Y0085346D01*
X0025503Y0085494D01*
X0025442Y0085643D01*
X0025386Y0085794D01*
X0025333Y0085946D01*
X0025284Y0086099D01*
X0025239Y0086253D01*
X0025198Y0086408D01*
X0025160Y0086565D01*
X0025127Y0086722D01*
X0025097Y0086880D01*
X0025071Y0087039D01*
X0025050Y0087198D01*
X0025032Y0087358D01*
X0025018Y0087518D01*
X0025008Y0087679D01*
X0025002Y0087839D01*
X0025000Y0088000D01*
X0007063Y0121000D02*
X0007065Y0121125D01*
X0007071Y0121250D01*
X0007081Y0121374D01*
X0007095Y0121498D01*
X0007112Y0121622D01*
X0007134Y0121745D01*
X0007160Y0121867D01*
X0007189Y0121989D01*
X0007222Y0122109D01*
X0007260Y0122228D01*
X0007300Y0122347D01*
X0007345Y0122463D01*
X0007393Y0122578D01*
X0007445Y0122692D01*
X0007501Y0122804D01*
X0007560Y0122914D01*
X0007622Y0123022D01*
X0007688Y0123129D01*
X0007757Y0123233D01*
X0007830Y0123334D01*
X0007905Y0123434D01*
X0007984Y0123531D01*
X0008066Y0123625D01*
X0008151Y0123717D01*
X0008238Y0123806D01*
X0008329Y0123892D01*
X0008422Y0123975D01*
X0008518Y0124056D01*
X0008616Y0124133D01*
X0008716Y0124207D01*
X0008819Y0124278D01*
X0008924Y0124345D01*
X0009032Y0124410D01*
X0009141Y0124470D01*
X0009252Y0124528D01*
X0009365Y0124581D01*
X0009479Y0124631D01*
X0009595Y0124678D01*
X0009712Y0124720D01*
X0009831Y0124759D01*
X0009951Y0124795D01*
X0010072Y0124826D01*
X0010194Y0124854D01*
X0010316Y0124877D01*
X0010440Y0124897D01*
X0010564Y0124913D01*
X0010688Y0124925D01*
X0010813Y0124933D01*
X0010938Y0124937D01*
X0011062Y0124937D01*
X0011187Y0124933D01*
X0011312Y0124925D01*
X0011436Y0124913D01*
X0011560Y0124897D01*
X0011684Y0124877D01*
X0011806Y0124854D01*
X0011928Y0124826D01*
X0012049Y0124795D01*
X0012169Y0124759D01*
X0012288Y0124720D01*
X0012405Y0124678D01*
X0012521Y0124631D01*
X0012635Y0124581D01*
X0012748Y0124528D01*
X0012859Y0124470D01*
X0012969Y0124410D01*
X0013076Y0124345D01*
X0013181Y0124278D01*
X0013284Y0124207D01*
X0013384Y0124133D01*
X0013482Y0124056D01*
X0013578Y0123975D01*
X0013671Y0123892D01*
X0013762Y0123806D01*
X0013849Y0123717D01*
X0013934Y0123625D01*
X0014016Y0123531D01*
X0014095Y0123434D01*
X0014170Y0123334D01*
X0014243Y0123233D01*
X0014312Y0123129D01*
X0014378Y0123022D01*
X0014440Y0122914D01*
X0014499Y0122804D01*
X0014555Y0122692D01*
X0014607Y0122578D01*
X0014655Y0122463D01*
X0014700Y0122347D01*
X0014740Y0122228D01*
X0014778Y0122109D01*
X0014811Y0121989D01*
X0014840Y0121867D01*
X0014866Y0121745D01*
X0014888Y0121622D01*
X0014905Y0121498D01*
X0014919Y0121374D01*
X0014929Y0121250D01*
X0014935Y0121125D01*
X0014937Y0121000D01*
X0014935Y0120875D01*
X0014929Y0120750D01*
X0014919Y0120626D01*
X0014905Y0120502D01*
X0014888Y0120378D01*
X0014866Y0120255D01*
X0014840Y0120133D01*
X0014811Y0120011D01*
X0014778Y0119891D01*
X0014740Y0119772D01*
X0014700Y0119653D01*
X0014655Y0119537D01*
X0014607Y0119422D01*
X0014555Y0119308D01*
X0014499Y0119196D01*
X0014440Y0119086D01*
X0014378Y0118978D01*
X0014312Y0118871D01*
X0014243Y0118767D01*
X0014170Y0118666D01*
X0014095Y0118566D01*
X0014016Y0118469D01*
X0013934Y0118375D01*
X0013849Y0118283D01*
X0013762Y0118194D01*
X0013671Y0118108D01*
X0013578Y0118025D01*
X0013482Y0117944D01*
X0013384Y0117867D01*
X0013284Y0117793D01*
X0013181Y0117722D01*
X0013076Y0117655D01*
X0012968Y0117590D01*
X0012859Y0117530D01*
X0012748Y0117472D01*
X0012635Y0117419D01*
X0012521Y0117369D01*
X0012405Y0117322D01*
X0012288Y0117280D01*
X0012169Y0117241D01*
X0012049Y0117205D01*
X0011928Y0117174D01*
X0011806Y0117146D01*
X0011684Y0117123D01*
X0011560Y0117103D01*
X0011436Y0117087D01*
X0011312Y0117075D01*
X0011187Y0117067D01*
X0011062Y0117063D01*
X0010938Y0117063D01*
X0010813Y0117067D01*
X0010688Y0117075D01*
X0010564Y0117087D01*
X0010440Y0117103D01*
X0010316Y0117123D01*
X0010194Y0117146D01*
X0010072Y0117174D01*
X0009951Y0117205D01*
X0009831Y0117241D01*
X0009712Y0117280D01*
X0009595Y0117322D01*
X0009479Y0117369D01*
X0009365Y0117419D01*
X0009252Y0117472D01*
X0009141Y0117530D01*
X0009031Y0117590D01*
X0008924Y0117655D01*
X0008819Y0117722D01*
X0008716Y0117793D01*
X0008616Y0117867D01*
X0008518Y0117944D01*
X0008422Y0118025D01*
X0008329Y0118108D01*
X0008238Y0118194D01*
X0008151Y0118283D01*
X0008066Y0118375D01*
X0007984Y0118469D01*
X0007905Y0118566D01*
X0007830Y0118666D01*
X0007757Y0118767D01*
X0007688Y0118871D01*
X0007622Y0118978D01*
X0007560Y0119086D01*
X0007501Y0119196D01*
X0007445Y0119308D01*
X0007393Y0119422D01*
X0007345Y0119537D01*
X0007300Y0119653D01*
X0007260Y0119772D01*
X0007222Y0119891D01*
X0007189Y0120011D01*
X0007160Y0120133D01*
X0007134Y0120255D01*
X0007112Y0120378D01*
X0007095Y0120502D01*
X0007081Y0120626D01*
X0007071Y0120750D01*
X0007065Y0120875D01*
X0007063Y0121000D01*
X0172063Y0121000D02*
X0172065Y0121125D01*
X0172071Y0121250D01*
X0172081Y0121374D01*
X0172095Y0121498D01*
X0172112Y0121622D01*
X0172134Y0121745D01*
X0172160Y0121867D01*
X0172189Y0121989D01*
X0172222Y0122109D01*
X0172260Y0122228D01*
X0172300Y0122347D01*
X0172345Y0122463D01*
X0172393Y0122578D01*
X0172445Y0122692D01*
X0172501Y0122804D01*
X0172560Y0122914D01*
X0172622Y0123022D01*
X0172688Y0123129D01*
X0172757Y0123233D01*
X0172830Y0123334D01*
X0172905Y0123434D01*
X0172984Y0123531D01*
X0173066Y0123625D01*
X0173151Y0123717D01*
X0173238Y0123806D01*
X0173329Y0123892D01*
X0173422Y0123975D01*
X0173518Y0124056D01*
X0173616Y0124133D01*
X0173716Y0124207D01*
X0173819Y0124278D01*
X0173924Y0124345D01*
X0174032Y0124410D01*
X0174141Y0124470D01*
X0174252Y0124528D01*
X0174365Y0124581D01*
X0174479Y0124631D01*
X0174595Y0124678D01*
X0174712Y0124720D01*
X0174831Y0124759D01*
X0174951Y0124795D01*
X0175072Y0124826D01*
X0175194Y0124854D01*
X0175316Y0124877D01*
X0175440Y0124897D01*
X0175564Y0124913D01*
X0175688Y0124925D01*
X0175813Y0124933D01*
X0175938Y0124937D01*
X0176062Y0124937D01*
X0176187Y0124933D01*
X0176312Y0124925D01*
X0176436Y0124913D01*
X0176560Y0124897D01*
X0176684Y0124877D01*
X0176806Y0124854D01*
X0176928Y0124826D01*
X0177049Y0124795D01*
X0177169Y0124759D01*
X0177288Y0124720D01*
X0177405Y0124678D01*
X0177521Y0124631D01*
X0177635Y0124581D01*
X0177748Y0124528D01*
X0177859Y0124470D01*
X0177969Y0124410D01*
X0178076Y0124345D01*
X0178181Y0124278D01*
X0178284Y0124207D01*
X0178384Y0124133D01*
X0178482Y0124056D01*
X0178578Y0123975D01*
X0178671Y0123892D01*
X0178762Y0123806D01*
X0178849Y0123717D01*
X0178934Y0123625D01*
X0179016Y0123531D01*
X0179095Y0123434D01*
X0179170Y0123334D01*
X0179243Y0123233D01*
X0179312Y0123129D01*
X0179378Y0123022D01*
X0179440Y0122914D01*
X0179499Y0122804D01*
X0179555Y0122692D01*
X0179607Y0122578D01*
X0179655Y0122463D01*
X0179700Y0122347D01*
X0179740Y0122228D01*
X0179778Y0122109D01*
X0179811Y0121989D01*
X0179840Y0121867D01*
X0179866Y0121745D01*
X0179888Y0121622D01*
X0179905Y0121498D01*
X0179919Y0121374D01*
X0179929Y0121250D01*
X0179935Y0121125D01*
X0179937Y0121000D01*
X0179935Y0120875D01*
X0179929Y0120750D01*
X0179919Y0120626D01*
X0179905Y0120502D01*
X0179888Y0120378D01*
X0179866Y0120255D01*
X0179840Y0120133D01*
X0179811Y0120011D01*
X0179778Y0119891D01*
X0179740Y0119772D01*
X0179700Y0119653D01*
X0179655Y0119537D01*
X0179607Y0119422D01*
X0179555Y0119308D01*
X0179499Y0119196D01*
X0179440Y0119086D01*
X0179378Y0118978D01*
X0179312Y0118871D01*
X0179243Y0118767D01*
X0179170Y0118666D01*
X0179095Y0118566D01*
X0179016Y0118469D01*
X0178934Y0118375D01*
X0178849Y0118283D01*
X0178762Y0118194D01*
X0178671Y0118108D01*
X0178578Y0118025D01*
X0178482Y0117944D01*
X0178384Y0117867D01*
X0178284Y0117793D01*
X0178181Y0117722D01*
X0178076Y0117655D01*
X0177968Y0117590D01*
X0177859Y0117530D01*
X0177748Y0117472D01*
X0177635Y0117419D01*
X0177521Y0117369D01*
X0177405Y0117322D01*
X0177288Y0117280D01*
X0177169Y0117241D01*
X0177049Y0117205D01*
X0176928Y0117174D01*
X0176806Y0117146D01*
X0176684Y0117123D01*
X0176560Y0117103D01*
X0176436Y0117087D01*
X0176312Y0117075D01*
X0176187Y0117067D01*
X0176062Y0117063D01*
X0175938Y0117063D01*
X0175813Y0117067D01*
X0175688Y0117075D01*
X0175564Y0117087D01*
X0175440Y0117103D01*
X0175316Y0117123D01*
X0175194Y0117146D01*
X0175072Y0117174D01*
X0174951Y0117205D01*
X0174831Y0117241D01*
X0174712Y0117280D01*
X0174595Y0117322D01*
X0174479Y0117369D01*
X0174365Y0117419D01*
X0174252Y0117472D01*
X0174141Y0117530D01*
X0174031Y0117590D01*
X0173924Y0117655D01*
X0173819Y0117722D01*
X0173716Y0117793D01*
X0173616Y0117867D01*
X0173518Y0117944D01*
X0173422Y0118025D01*
X0173329Y0118108D01*
X0173238Y0118194D01*
X0173151Y0118283D01*
X0173066Y0118375D01*
X0172984Y0118469D01*
X0172905Y0118566D01*
X0172830Y0118666D01*
X0172757Y0118767D01*
X0172688Y0118871D01*
X0172622Y0118978D01*
X0172560Y0119086D01*
X0172501Y0119196D01*
X0172445Y0119308D01*
X0172393Y0119422D01*
X0172345Y0119537D01*
X0172300Y0119653D01*
X0172260Y0119772D01*
X0172222Y0119891D01*
X0172189Y0120011D01*
X0172160Y0120133D01*
X0172134Y0120255D01*
X0172112Y0120378D01*
X0172095Y0120502D01*
X0172081Y0120626D01*
X0172071Y0120750D01*
X0172065Y0120875D01*
X0172063Y0121000D01*
X0172063Y0011000D02*
X0172065Y0011125D01*
X0172071Y0011250D01*
X0172081Y0011374D01*
X0172095Y0011498D01*
X0172112Y0011622D01*
X0172134Y0011745D01*
X0172160Y0011867D01*
X0172189Y0011989D01*
X0172222Y0012109D01*
X0172260Y0012228D01*
X0172300Y0012347D01*
X0172345Y0012463D01*
X0172393Y0012578D01*
X0172445Y0012692D01*
X0172501Y0012804D01*
X0172560Y0012914D01*
X0172622Y0013022D01*
X0172688Y0013129D01*
X0172757Y0013233D01*
X0172830Y0013334D01*
X0172905Y0013434D01*
X0172984Y0013531D01*
X0173066Y0013625D01*
X0173151Y0013717D01*
X0173238Y0013806D01*
X0173329Y0013892D01*
X0173422Y0013975D01*
X0173518Y0014056D01*
X0173616Y0014133D01*
X0173716Y0014207D01*
X0173819Y0014278D01*
X0173924Y0014345D01*
X0174032Y0014410D01*
X0174141Y0014470D01*
X0174252Y0014528D01*
X0174365Y0014581D01*
X0174479Y0014631D01*
X0174595Y0014678D01*
X0174712Y0014720D01*
X0174831Y0014759D01*
X0174951Y0014795D01*
X0175072Y0014826D01*
X0175194Y0014854D01*
X0175316Y0014877D01*
X0175440Y0014897D01*
X0175564Y0014913D01*
X0175688Y0014925D01*
X0175813Y0014933D01*
X0175938Y0014937D01*
X0176062Y0014937D01*
X0176187Y0014933D01*
X0176312Y0014925D01*
X0176436Y0014913D01*
X0176560Y0014897D01*
X0176684Y0014877D01*
X0176806Y0014854D01*
X0176928Y0014826D01*
X0177049Y0014795D01*
X0177169Y0014759D01*
X0177288Y0014720D01*
X0177405Y0014678D01*
X0177521Y0014631D01*
X0177635Y0014581D01*
X0177748Y0014528D01*
X0177859Y0014470D01*
X0177969Y0014410D01*
X0178076Y0014345D01*
X0178181Y0014278D01*
X0178284Y0014207D01*
X0178384Y0014133D01*
X0178482Y0014056D01*
X0178578Y0013975D01*
X0178671Y0013892D01*
X0178762Y0013806D01*
X0178849Y0013717D01*
X0178934Y0013625D01*
X0179016Y0013531D01*
X0179095Y0013434D01*
X0179170Y0013334D01*
X0179243Y0013233D01*
X0179312Y0013129D01*
X0179378Y0013022D01*
X0179440Y0012914D01*
X0179499Y0012804D01*
X0179555Y0012692D01*
X0179607Y0012578D01*
X0179655Y0012463D01*
X0179700Y0012347D01*
X0179740Y0012228D01*
X0179778Y0012109D01*
X0179811Y0011989D01*
X0179840Y0011867D01*
X0179866Y0011745D01*
X0179888Y0011622D01*
X0179905Y0011498D01*
X0179919Y0011374D01*
X0179929Y0011250D01*
X0179935Y0011125D01*
X0179937Y0011000D01*
X0179935Y0010875D01*
X0179929Y0010750D01*
X0179919Y0010626D01*
X0179905Y0010502D01*
X0179888Y0010378D01*
X0179866Y0010255D01*
X0179840Y0010133D01*
X0179811Y0010011D01*
X0179778Y0009891D01*
X0179740Y0009772D01*
X0179700Y0009653D01*
X0179655Y0009537D01*
X0179607Y0009422D01*
X0179555Y0009308D01*
X0179499Y0009196D01*
X0179440Y0009086D01*
X0179378Y0008978D01*
X0179312Y0008871D01*
X0179243Y0008767D01*
X0179170Y0008666D01*
X0179095Y0008566D01*
X0179016Y0008469D01*
X0178934Y0008375D01*
X0178849Y0008283D01*
X0178762Y0008194D01*
X0178671Y0008108D01*
X0178578Y0008025D01*
X0178482Y0007944D01*
X0178384Y0007867D01*
X0178284Y0007793D01*
X0178181Y0007722D01*
X0178076Y0007655D01*
X0177968Y0007590D01*
X0177859Y0007530D01*
X0177748Y0007472D01*
X0177635Y0007419D01*
X0177521Y0007369D01*
X0177405Y0007322D01*
X0177288Y0007280D01*
X0177169Y0007241D01*
X0177049Y0007205D01*
X0176928Y0007174D01*
X0176806Y0007146D01*
X0176684Y0007123D01*
X0176560Y0007103D01*
X0176436Y0007087D01*
X0176312Y0007075D01*
X0176187Y0007067D01*
X0176062Y0007063D01*
X0175938Y0007063D01*
X0175813Y0007067D01*
X0175688Y0007075D01*
X0175564Y0007087D01*
X0175440Y0007103D01*
X0175316Y0007123D01*
X0175194Y0007146D01*
X0175072Y0007174D01*
X0174951Y0007205D01*
X0174831Y0007241D01*
X0174712Y0007280D01*
X0174595Y0007322D01*
X0174479Y0007369D01*
X0174365Y0007419D01*
X0174252Y0007472D01*
X0174141Y0007530D01*
X0174031Y0007590D01*
X0173924Y0007655D01*
X0173819Y0007722D01*
X0173716Y0007793D01*
X0173616Y0007867D01*
X0173518Y0007944D01*
X0173422Y0008025D01*
X0173329Y0008108D01*
X0173238Y0008194D01*
X0173151Y0008283D01*
X0173066Y0008375D01*
X0172984Y0008469D01*
X0172905Y0008566D01*
X0172830Y0008666D01*
X0172757Y0008767D01*
X0172688Y0008871D01*
X0172622Y0008978D01*
X0172560Y0009086D01*
X0172501Y0009196D01*
X0172445Y0009308D01*
X0172393Y0009422D01*
X0172345Y0009537D01*
X0172300Y0009653D01*
X0172260Y0009772D01*
X0172222Y0009891D01*
X0172189Y0010011D01*
X0172160Y0010133D01*
X0172134Y0010255D01*
X0172112Y0010378D01*
X0172095Y0010502D01*
X0172081Y0010626D01*
X0172071Y0010750D01*
X0172065Y0010875D01*
X0172063Y0011000D01*
M02*
