G75*
%MOIN*%
%OFA0B0*%
%FSLAX25Y25*%
%IPPOS*%
%LPD*%
%AMOC8*
5,1,8,0,0,1.08239X$1,22.5*
%
%ADD10C,0.06000*%
%ADD11C,0.05543*%
%ADD12C,0.10050*%
%ADD13C,0.08250*%
%ADD14C,0.01600*%
%ADD15C,0.02400*%
D10*
X0086000Y0026000D03*
X0096000Y0026000D03*
X0106000Y0026000D03*
X0106000Y0106000D03*
X0096000Y0106000D03*
X0086000Y0106000D03*
D11*
X0056000Y0082500D03*
X0066000Y0078000D03*
X0056000Y0072500D03*
X0066000Y0068000D03*
X0056000Y0062500D03*
X0066000Y0058000D03*
X0056000Y0052500D03*
X0066000Y0048000D03*
D12*
X0043000Y0034000D03*
X0043000Y0096000D03*
D13*
X0151875Y0096000D02*
X0160125Y0096000D01*
X0160125Y0076000D02*
X0151875Y0076000D01*
X0151875Y0056000D02*
X0160125Y0056000D01*
X0160125Y0036000D02*
X0151875Y0036000D01*
D14*
X0096000Y0026000D02*
X0086000Y0036000D01*
X0061000Y0036000D01*
X0056000Y0041000D01*
X0056000Y0052500D01*
X0051000Y0056000D02*
X0051000Y0036000D01*
X0061000Y0026000D01*
X0086000Y0026000D01*
X0056000Y0061000D02*
X0051000Y0056000D01*
X0056000Y0061000D02*
X0056000Y0062500D01*
X0056000Y0071000D02*
X0056000Y0072500D01*
X0056000Y0071000D02*
X0051000Y0076000D01*
X0051000Y0091000D01*
X0066000Y0106000D01*
X0086000Y0106000D01*
X0096000Y0106000D02*
X0096000Y0101000D01*
X0091000Y0096000D01*
X0069500Y0096000D01*
X0056000Y0082500D01*
D15*
X0066000Y0078000D02*
X0108000Y0078000D01*
X0126000Y0096000D01*
X0156000Y0096000D01*
X0156000Y0076000D02*
X0131000Y0076000D01*
X0123000Y0068000D01*
X0066000Y0068000D01*
X0066000Y0058000D02*
X0124000Y0058000D01*
X0126000Y0056000D01*
X0156000Y0056000D01*
X0156000Y0036000D02*
X0136000Y0036000D01*
X0124000Y0048000D01*
X0066000Y0048000D01*
M02*
