G75*
%MOIN*%
%OFA0B0*%
%FSLAX25Y25*%
%IPPOS*%
%LPD*%
%AMOC8*
5,1,8,0,0,1.08239X$1,22.5*
%
%ADD10C,0.00000*%
%ADD11C,0.00600*%
%ADD12C,0.00500*%
%ADD13C,0.00700*%
D10*
X0001000Y0001000D02*
X0001000Y0130961D01*
X0184701Y0130961D01*
X0184701Y0001000D01*
X0001000Y0001000D01*
X0007063Y0011000D02*
X0007065Y0011125D01*
X0007071Y0011250D01*
X0007081Y0011374D01*
X0007095Y0011498D01*
X0007112Y0011622D01*
X0007134Y0011745D01*
X0007160Y0011867D01*
X0007189Y0011989D01*
X0007222Y0012109D01*
X0007260Y0012228D01*
X0007300Y0012347D01*
X0007345Y0012463D01*
X0007393Y0012578D01*
X0007445Y0012692D01*
X0007501Y0012804D01*
X0007560Y0012914D01*
X0007622Y0013022D01*
X0007688Y0013129D01*
X0007757Y0013233D01*
X0007830Y0013334D01*
X0007905Y0013434D01*
X0007984Y0013531D01*
X0008066Y0013625D01*
X0008151Y0013717D01*
X0008238Y0013806D01*
X0008329Y0013892D01*
X0008422Y0013975D01*
X0008518Y0014056D01*
X0008616Y0014133D01*
X0008716Y0014207D01*
X0008819Y0014278D01*
X0008924Y0014345D01*
X0009032Y0014410D01*
X0009141Y0014470D01*
X0009252Y0014528D01*
X0009365Y0014581D01*
X0009479Y0014631D01*
X0009595Y0014678D01*
X0009712Y0014720D01*
X0009831Y0014759D01*
X0009951Y0014795D01*
X0010072Y0014826D01*
X0010194Y0014854D01*
X0010316Y0014877D01*
X0010440Y0014897D01*
X0010564Y0014913D01*
X0010688Y0014925D01*
X0010813Y0014933D01*
X0010938Y0014937D01*
X0011062Y0014937D01*
X0011187Y0014933D01*
X0011312Y0014925D01*
X0011436Y0014913D01*
X0011560Y0014897D01*
X0011684Y0014877D01*
X0011806Y0014854D01*
X0011928Y0014826D01*
X0012049Y0014795D01*
X0012169Y0014759D01*
X0012288Y0014720D01*
X0012405Y0014678D01*
X0012521Y0014631D01*
X0012635Y0014581D01*
X0012748Y0014528D01*
X0012859Y0014470D01*
X0012969Y0014410D01*
X0013076Y0014345D01*
X0013181Y0014278D01*
X0013284Y0014207D01*
X0013384Y0014133D01*
X0013482Y0014056D01*
X0013578Y0013975D01*
X0013671Y0013892D01*
X0013762Y0013806D01*
X0013849Y0013717D01*
X0013934Y0013625D01*
X0014016Y0013531D01*
X0014095Y0013434D01*
X0014170Y0013334D01*
X0014243Y0013233D01*
X0014312Y0013129D01*
X0014378Y0013022D01*
X0014440Y0012914D01*
X0014499Y0012804D01*
X0014555Y0012692D01*
X0014607Y0012578D01*
X0014655Y0012463D01*
X0014700Y0012347D01*
X0014740Y0012228D01*
X0014778Y0012109D01*
X0014811Y0011989D01*
X0014840Y0011867D01*
X0014866Y0011745D01*
X0014888Y0011622D01*
X0014905Y0011498D01*
X0014919Y0011374D01*
X0014929Y0011250D01*
X0014935Y0011125D01*
X0014937Y0011000D01*
X0014935Y0010875D01*
X0014929Y0010750D01*
X0014919Y0010626D01*
X0014905Y0010502D01*
X0014888Y0010378D01*
X0014866Y0010255D01*
X0014840Y0010133D01*
X0014811Y0010011D01*
X0014778Y0009891D01*
X0014740Y0009772D01*
X0014700Y0009653D01*
X0014655Y0009537D01*
X0014607Y0009422D01*
X0014555Y0009308D01*
X0014499Y0009196D01*
X0014440Y0009086D01*
X0014378Y0008978D01*
X0014312Y0008871D01*
X0014243Y0008767D01*
X0014170Y0008666D01*
X0014095Y0008566D01*
X0014016Y0008469D01*
X0013934Y0008375D01*
X0013849Y0008283D01*
X0013762Y0008194D01*
X0013671Y0008108D01*
X0013578Y0008025D01*
X0013482Y0007944D01*
X0013384Y0007867D01*
X0013284Y0007793D01*
X0013181Y0007722D01*
X0013076Y0007655D01*
X0012968Y0007590D01*
X0012859Y0007530D01*
X0012748Y0007472D01*
X0012635Y0007419D01*
X0012521Y0007369D01*
X0012405Y0007322D01*
X0012288Y0007280D01*
X0012169Y0007241D01*
X0012049Y0007205D01*
X0011928Y0007174D01*
X0011806Y0007146D01*
X0011684Y0007123D01*
X0011560Y0007103D01*
X0011436Y0007087D01*
X0011312Y0007075D01*
X0011187Y0007067D01*
X0011062Y0007063D01*
X0010938Y0007063D01*
X0010813Y0007067D01*
X0010688Y0007075D01*
X0010564Y0007087D01*
X0010440Y0007103D01*
X0010316Y0007123D01*
X0010194Y0007146D01*
X0010072Y0007174D01*
X0009951Y0007205D01*
X0009831Y0007241D01*
X0009712Y0007280D01*
X0009595Y0007322D01*
X0009479Y0007369D01*
X0009365Y0007419D01*
X0009252Y0007472D01*
X0009141Y0007530D01*
X0009031Y0007590D01*
X0008924Y0007655D01*
X0008819Y0007722D01*
X0008716Y0007793D01*
X0008616Y0007867D01*
X0008518Y0007944D01*
X0008422Y0008025D01*
X0008329Y0008108D01*
X0008238Y0008194D01*
X0008151Y0008283D01*
X0008066Y0008375D01*
X0007984Y0008469D01*
X0007905Y0008566D01*
X0007830Y0008666D01*
X0007757Y0008767D01*
X0007688Y0008871D01*
X0007622Y0008978D01*
X0007560Y0009086D01*
X0007501Y0009196D01*
X0007445Y0009308D01*
X0007393Y0009422D01*
X0007345Y0009537D01*
X0007300Y0009653D01*
X0007260Y0009772D01*
X0007222Y0009891D01*
X0007189Y0010011D01*
X0007160Y0010133D01*
X0007134Y0010255D01*
X0007112Y0010378D01*
X0007095Y0010502D01*
X0007081Y0010626D01*
X0007071Y0010750D01*
X0007065Y0010875D01*
X0007063Y0011000D01*
X0024500Y0042000D02*
X0024502Y0042161D01*
X0024508Y0042321D01*
X0024518Y0042482D01*
X0024532Y0042642D01*
X0024550Y0042802D01*
X0024571Y0042961D01*
X0024597Y0043120D01*
X0024627Y0043278D01*
X0024660Y0043435D01*
X0024698Y0043592D01*
X0024739Y0043747D01*
X0024784Y0043901D01*
X0024833Y0044054D01*
X0024886Y0044206D01*
X0024942Y0044357D01*
X0025003Y0044506D01*
X0025066Y0044654D01*
X0025134Y0044800D01*
X0025205Y0044944D01*
X0025279Y0045086D01*
X0025357Y0045227D01*
X0025439Y0045365D01*
X0025524Y0045502D01*
X0025612Y0045636D01*
X0025704Y0045768D01*
X0025799Y0045898D01*
X0025897Y0046026D01*
X0025998Y0046151D01*
X0026102Y0046273D01*
X0026209Y0046393D01*
X0026319Y0046510D01*
X0026432Y0046625D01*
X0026548Y0046736D01*
X0026667Y0046845D01*
X0026788Y0046950D01*
X0026912Y0047053D01*
X0027038Y0047153D01*
X0027166Y0047249D01*
X0027297Y0047342D01*
X0027431Y0047432D01*
X0027566Y0047519D01*
X0027704Y0047602D01*
X0027843Y0047682D01*
X0027985Y0047758D01*
X0028128Y0047831D01*
X0028273Y0047900D01*
X0028420Y0047966D01*
X0028568Y0048028D01*
X0028718Y0048086D01*
X0028869Y0048141D01*
X0029022Y0048192D01*
X0029176Y0048239D01*
X0029331Y0048282D01*
X0029487Y0048321D01*
X0029643Y0048357D01*
X0029801Y0048388D01*
X0029959Y0048416D01*
X0030118Y0048440D01*
X0030278Y0048460D01*
X0030438Y0048476D01*
X0030598Y0048488D01*
X0030759Y0048496D01*
X0030920Y0048500D01*
X0031080Y0048500D01*
X0031241Y0048496D01*
X0031402Y0048488D01*
X0031562Y0048476D01*
X0031722Y0048460D01*
X0031882Y0048440D01*
X0032041Y0048416D01*
X0032199Y0048388D01*
X0032357Y0048357D01*
X0032513Y0048321D01*
X0032669Y0048282D01*
X0032824Y0048239D01*
X0032978Y0048192D01*
X0033131Y0048141D01*
X0033282Y0048086D01*
X0033432Y0048028D01*
X0033580Y0047966D01*
X0033727Y0047900D01*
X0033872Y0047831D01*
X0034015Y0047758D01*
X0034157Y0047682D01*
X0034296Y0047602D01*
X0034434Y0047519D01*
X0034569Y0047432D01*
X0034703Y0047342D01*
X0034834Y0047249D01*
X0034962Y0047153D01*
X0035088Y0047053D01*
X0035212Y0046950D01*
X0035333Y0046845D01*
X0035452Y0046736D01*
X0035568Y0046625D01*
X0035681Y0046510D01*
X0035791Y0046393D01*
X0035898Y0046273D01*
X0036002Y0046151D01*
X0036103Y0046026D01*
X0036201Y0045898D01*
X0036296Y0045768D01*
X0036388Y0045636D01*
X0036476Y0045502D01*
X0036561Y0045365D01*
X0036643Y0045227D01*
X0036721Y0045086D01*
X0036795Y0044944D01*
X0036866Y0044800D01*
X0036934Y0044654D01*
X0036997Y0044506D01*
X0037058Y0044357D01*
X0037114Y0044206D01*
X0037167Y0044054D01*
X0037216Y0043901D01*
X0037261Y0043747D01*
X0037302Y0043592D01*
X0037340Y0043435D01*
X0037373Y0043278D01*
X0037403Y0043120D01*
X0037429Y0042961D01*
X0037450Y0042802D01*
X0037468Y0042642D01*
X0037482Y0042482D01*
X0037492Y0042321D01*
X0037498Y0042161D01*
X0037500Y0042000D01*
X0037498Y0041839D01*
X0037492Y0041679D01*
X0037482Y0041518D01*
X0037468Y0041358D01*
X0037450Y0041198D01*
X0037429Y0041039D01*
X0037403Y0040880D01*
X0037373Y0040722D01*
X0037340Y0040565D01*
X0037302Y0040408D01*
X0037261Y0040253D01*
X0037216Y0040099D01*
X0037167Y0039946D01*
X0037114Y0039794D01*
X0037058Y0039643D01*
X0036997Y0039494D01*
X0036934Y0039346D01*
X0036866Y0039200D01*
X0036795Y0039056D01*
X0036721Y0038914D01*
X0036643Y0038773D01*
X0036561Y0038635D01*
X0036476Y0038498D01*
X0036388Y0038364D01*
X0036296Y0038232D01*
X0036201Y0038102D01*
X0036103Y0037974D01*
X0036002Y0037849D01*
X0035898Y0037727D01*
X0035791Y0037607D01*
X0035681Y0037490D01*
X0035568Y0037375D01*
X0035452Y0037264D01*
X0035333Y0037155D01*
X0035212Y0037050D01*
X0035088Y0036947D01*
X0034962Y0036847D01*
X0034834Y0036751D01*
X0034703Y0036658D01*
X0034569Y0036568D01*
X0034434Y0036481D01*
X0034296Y0036398D01*
X0034157Y0036318D01*
X0034015Y0036242D01*
X0033872Y0036169D01*
X0033727Y0036100D01*
X0033580Y0036034D01*
X0033432Y0035972D01*
X0033282Y0035914D01*
X0033131Y0035859D01*
X0032978Y0035808D01*
X0032824Y0035761D01*
X0032669Y0035718D01*
X0032513Y0035679D01*
X0032357Y0035643D01*
X0032199Y0035612D01*
X0032041Y0035584D01*
X0031882Y0035560D01*
X0031722Y0035540D01*
X0031562Y0035524D01*
X0031402Y0035512D01*
X0031241Y0035504D01*
X0031080Y0035500D01*
X0030920Y0035500D01*
X0030759Y0035504D01*
X0030598Y0035512D01*
X0030438Y0035524D01*
X0030278Y0035540D01*
X0030118Y0035560D01*
X0029959Y0035584D01*
X0029801Y0035612D01*
X0029643Y0035643D01*
X0029487Y0035679D01*
X0029331Y0035718D01*
X0029176Y0035761D01*
X0029022Y0035808D01*
X0028869Y0035859D01*
X0028718Y0035914D01*
X0028568Y0035972D01*
X0028420Y0036034D01*
X0028273Y0036100D01*
X0028128Y0036169D01*
X0027985Y0036242D01*
X0027843Y0036318D01*
X0027704Y0036398D01*
X0027566Y0036481D01*
X0027431Y0036568D01*
X0027297Y0036658D01*
X0027166Y0036751D01*
X0027038Y0036847D01*
X0026912Y0036947D01*
X0026788Y0037050D01*
X0026667Y0037155D01*
X0026548Y0037264D01*
X0026432Y0037375D01*
X0026319Y0037490D01*
X0026209Y0037607D01*
X0026102Y0037727D01*
X0025998Y0037849D01*
X0025897Y0037974D01*
X0025799Y0038102D01*
X0025704Y0038232D01*
X0025612Y0038364D01*
X0025524Y0038498D01*
X0025439Y0038635D01*
X0025357Y0038773D01*
X0025279Y0038914D01*
X0025205Y0039056D01*
X0025134Y0039200D01*
X0025066Y0039346D01*
X0025003Y0039494D01*
X0024942Y0039643D01*
X0024886Y0039794D01*
X0024833Y0039946D01*
X0024784Y0040099D01*
X0024739Y0040253D01*
X0024698Y0040408D01*
X0024660Y0040565D01*
X0024627Y0040722D01*
X0024597Y0040880D01*
X0024571Y0041039D01*
X0024550Y0041198D01*
X0024532Y0041358D01*
X0024518Y0041518D01*
X0024508Y0041679D01*
X0024502Y0041839D01*
X0024500Y0042000D01*
X0025000Y0088000D02*
X0025002Y0088161D01*
X0025008Y0088321D01*
X0025018Y0088482D01*
X0025032Y0088642D01*
X0025050Y0088802D01*
X0025071Y0088961D01*
X0025097Y0089120D01*
X0025127Y0089278D01*
X0025160Y0089435D01*
X0025198Y0089592D01*
X0025239Y0089747D01*
X0025284Y0089901D01*
X0025333Y0090054D01*
X0025386Y0090206D01*
X0025442Y0090357D01*
X0025503Y0090506D01*
X0025566Y0090654D01*
X0025634Y0090800D01*
X0025705Y0090944D01*
X0025779Y0091086D01*
X0025857Y0091227D01*
X0025939Y0091365D01*
X0026024Y0091502D01*
X0026112Y0091636D01*
X0026204Y0091768D01*
X0026299Y0091898D01*
X0026397Y0092026D01*
X0026498Y0092151D01*
X0026602Y0092273D01*
X0026709Y0092393D01*
X0026819Y0092510D01*
X0026932Y0092625D01*
X0027048Y0092736D01*
X0027167Y0092845D01*
X0027288Y0092950D01*
X0027412Y0093053D01*
X0027538Y0093153D01*
X0027666Y0093249D01*
X0027797Y0093342D01*
X0027931Y0093432D01*
X0028066Y0093519D01*
X0028204Y0093602D01*
X0028343Y0093682D01*
X0028485Y0093758D01*
X0028628Y0093831D01*
X0028773Y0093900D01*
X0028920Y0093966D01*
X0029068Y0094028D01*
X0029218Y0094086D01*
X0029369Y0094141D01*
X0029522Y0094192D01*
X0029676Y0094239D01*
X0029831Y0094282D01*
X0029987Y0094321D01*
X0030143Y0094357D01*
X0030301Y0094388D01*
X0030459Y0094416D01*
X0030618Y0094440D01*
X0030778Y0094460D01*
X0030938Y0094476D01*
X0031098Y0094488D01*
X0031259Y0094496D01*
X0031420Y0094500D01*
X0031580Y0094500D01*
X0031741Y0094496D01*
X0031902Y0094488D01*
X0032062Y0094476D01*
X0032222Y0094460D01*
X0032382Y0094440D01*
X0032541Y0094416D01*
X0032699Y0094388D01*
X0032857Y0094357D01*
X0033013Y0094321D01*
X0033169Y0094282D01*
X0033324Y0094239D01*
X0033478Y0094192D01*
X0033631Y0094141D01*
X0033782Y0094086D01*
X0033932Y0094028D01*
X0034080Y0093966D01*
X0034227Y0093900D01*
X0034372Y0093831D01*
X0034515Y0093758D01*
X0034657Y0093682D01*
X0034796Y0093602D01*
X0034934Y0093519D01*
X0035069Y0093432D01*
X0035203Y0093342D01*
X0035334Y0093249D01*
X0035462Y0093153D01*
X0035588Y0093053D01*
X0035712Y0092950D01*
X0035833Y0092845D01*
X0035952Y0092736D01*
X0036068Y0092625D01*
X0036181Y0092510D01*
X0036291Y0092393D01*
X0036398Y0092273D01*
X0036502Y0092151D01*
X0036603Y0092026D01*
X0036701Y0091898D01*
X0036796Y0091768D01*
X0036888Y0091636D01*
X0036976Y0091502D01*
X0037061Y0091365D01*
X0037143Y0091227D01*
X0037221Y0091086D01*
X0037295Y0090944D01*
X0037366Y0090800D01*
X0037434Y0090654D01*
X0037497Y0090506D01*
X0037558Y0090357D01*
X0037614Y0090206D01*
X0037667Y0090054D01*
X0037716Y0089901D01*
X0037761Y0089747D01*
X0037802Y0089592D01*
X0037840Y0089435D01*
X0037873Y0089278D01*
X0037903Y0089120D01*
X0037929Y0088961D01*
X0037950Y0088802D01*
X0037968Y0088642D01*
X0037982Y0088482D01*
X0037992Y0088321D01*
X0037998Y0088161D01*
X0038000Y0088000D01*
X0037998Y0087839D01*
X0037992Y0087679D01*
X0037982Y0087518D01*
X0037968Y0087358D01*
X0037950Y0087198D01*
X0037929Y0087039D01*
X0037903Y0086880D01*
X0037873Y0086722D01*
X0037840Y0086565D01*
X0037802Y0086408D01*
X0037761Y0086253D01*
X0037716Y0086099D01*
X0037667Y0085946D01*
X0037614Y0085794D01*
X0037558Y0085643D01*
X0037497Y0085494D01*
X0037434Y0085346D01*
X0037366Y0085200D01*
X0037295Y0085056D01*
X0037221Y0084914D01*
X0037143Y0084773D01*
X0037061Y0084635D01*
X0036976Y0084498D01*
X0036888Y0084364D01*
X0036796Y0084232D01*
X0036701Y0084102D01*
X0036603Y0083974D01*
X0036502Y0083849D01*
X0036398Y0083727D01*
X0036291Y0083607D01*
X0036181Y0083490D01*
X0036068Y0083375D01*
X0035952Y0083264D01*
X0035833Y0083155D01*
X0035712Y0083050D01*
X0035588Y0082947D01*
X0035462Y0082847D01*
X0035334Y0082751D01*
X0035203Y0082658D01*
X0035069Y0082568D01*
X0034934Y0082481D01*
X0034796Y0082398D01*
X0034657Y0082318D01*
X0034515Y0082242D01*
X0034372Y0082169D01*
X0034227Y0082100D01*
X0034080Y0082034D01*
X0033932Y0081972D01*
X0033782Y0081914D01*
X0033631Y0081859D01*
X0033478Y0081808D01*
X0033324Y0081761D01*
X0033169Y0081718D01*
X0033013Y0081679D01*
X0032857Y0081643D01*
X0032699Y0081612D01*
X0032541Y0081584D01*
X0032382Y0081560D01*
X0032222Y0081540D01*
X0032062Y0081524D01*
X0031902Y0081512D01*
X0031741Y0081504D01*
X0031580Y0081500D01*
X0031420Y0081500D01*
X0031259Y0081504D01*
X0031098Y0081512D01*
X0030938Y0081524D01*
X0030778Y0081540D01*
X0030618Y0081560D01*
X0030459Y0081584D01*
X0030301Y0081612D01*
X0030143Y0081643D01*
X0029987Y0081679D01*
X0029831Y0081718D01*
X0029676Y0081761D01*
X0029522Y0081808D01*
X0029369Y0081859D01*
X0029218Y0081914D01*
X0029068Y0081972D01*
X0028920Y0082034D01*
X0028773Y0082100D01*
X0028628Y0082169D01*
X0028485Y0082242D01*
X0028343Y0082318D01*
X0028204Y0082398D01*
X0028066Y0082481D01*
X0027931Y0082568D01*
X0027797Y0082658D01*
X0027666Y0082751D01*
X0027538Y0082847D01*
X0027412Y0082947D01*
X0027288Y0083050D01*
X0027167Y0083155D01*
X0027048Y0083264D01*
X0026932Y0083375D01*
X0026819Y0083490D01*
X0026709Y0083607D01*
X0026602Y0083727D01*
X0026498Y0083849D01*
X0026397Y0083974D01*
X0026299Y0084102D01*
X0026204Y0084232D01*
X0026112Y0084364D01*
X0026024Y0084498D01*
X0025939Y0084635D01*
X0025857Y0084773D01*
X0025779Y0084914D01*
X0025705Y0085056D01*
X0025634Y0085200D01*
X0025566Y0085346D01*
X0025503Y0085494D01*
X0025442Y0085643D01*
X0025386Y0085794D01*
X0025333Y0085946D01*
X0025284Y0086099D01*
X0025239Y0086253D01*
X0025198Y0086408D01*
X0025160Y0086565D01*
X0025127Y0086722D01*
X0025097Y0086880D01*
X0025071Y0087039D01*
X0025050Y0087198D01*
X0025032Y0087358D01*
X0025018Y0087518D01*
X0025008Y0087679D01*
X0025002Y0087839D01*
X0025000Y0088000D01*
X0007063Y0121000D02*
X0007065Y0121125D01*
X0007071Y0121250D01*
X0007081Y0121374D01*
X0007095Y0121498D01*
X0007112Y0121622D01*
X0007134Y0121745D01*
X0007160Y0121867D01*
X0007189Y0121989D01*
X0007222Y0122109D01*
X0007260Y0122228D01*
X0007300Y0122347D01*
X0007345Y0122463D01*
X0007393Y0122578D01*
X0007445Y0122692D01*
X0007501Y0122804D01*
X0007560Y0122914D01*
X0007622Y0123022D01*
X0007688Y0123129D01*
X0007757Y0123233D01*
X0007830Y0123334D01*
X0007905Y0123434D01*
X0007984Y0123531D01*
X0008066Y0123625D01*
X0008151Y0123717D01*
X0008238Y0123806D01*
X0008329Y0123892D01*
X0008422Y0123975D01*
X0008518Y0124056D01*
X0008616Y0124133D01*
X0008716Y0124207D01*
X0008819Y0124278D01*
X0008924Y0124345D01*
X0009032Y0124410D01*
X0009141Y0124470D01*
X0009252Y0124528D01*
X0009365Y0124581D01*
X0009479Y0124631D01*
X0009595Y0124678D01*
X0009712Y0124720D01*
X0009831Y0124759D01*
X0009951Y0124795D01*
X0010072Y0124826D01*
X0010194Y0124854D01*
X0010316Y0124877D01*
X0010440Y0124897D01*
X0010564Y0124913D01*
X0010688Y0124925D01*
X0010813Y0124933D01*
X0010938Y0124937D01*
X0011062Y0124937D01*
X0011187Y0124933D01*
X0011312Y0124925D01*
X0011436Y0124913D01*
X0011560Y0124897D01*
X0011684Y0124877D01*
X0011806Y0124854D01*
X0011928Y0124826D01*
X0012049Y0124795D01*
X0012169Y0124759D01*
X0012288Y0124720D01*
X0012405Y0124678D01*
X0012521Y0124631D01*
X0012635Y0124581D01*
X0012748Y0124528D01*
X0012859Y0124470D01*
X0012969Y0124410D01*
X0013076Y0124345D01*
X0013181Y0124278D01*
X0013284Y0124207D01*
X0013384Y0124133D01*
X0013482Y0124056D01*
X0013578Y0123975D01*
X0013671Y0123892D01*
X0013762Y0123806D01*
X0013849Y0123717D01*
X0013934Y0123625D01*
X0014016Y0123531D01*
X0014095Y0123434D01*
X0014170Y0123334D01*
X0014243Y0123233D01*
X0014312Y0123129D01*
X0014378Y0123022D01*
X0014440Y0122914D01*
X0014499Y0122804D01*
X0014555Y0122692D01*
X0014607Y0122578D01*
X0014655Y0122463D01*
X0014700Y0122347D01*
X0014740Y0122228D01*
X0014778Y0122109D01*
X0014811Y0121989D01*
X0014840Y0121867D01*
X0014866Y0121745D01*
X0014888Y0121622D01*
X0014905Y0121498D01*
X0014919Y0121374D01*
X0014929Y0121250D01*
X0014935Y0121125D01*
X0014937Y0121000D01*
X0014935Y0120875D01*
X0014929Y0120750D01*
X0014919Y0120626D01*
X0014905Y0120502D01*
X0014888Y0120378D01*
X0014866Y0120255D01*
X0014840Y0120133D01*
X0014811Y0120011D01*
X0014778Y0119891D01*
X0014740Y0119772D01*
X0014700Y0119653D01*
X0014655Y0119537D01*
X0014607Y0119422D01*
X0014555Y0119308D01*
X0014499Y0119196D01*
X0014440Y0119086D01*
X0014378Y0118978D01*
X0014312Y0118871D01*
X0014243Y0118767D01*
X0014170Y0118666D01*
X0014095Y0118566D01*
X0014016Y0118469D01*
X0013934Y0118375D01*
X0013849Y0118283D01*
X0013762Y0118194D01*
X0013671Y0118108D01*
X0013578Y0118025D01*
X0013482Y0117944D01*
X0013384Y0117867D01*
X0013284Y0117793D01*
X0013181Y0117722D01*
X0013076Y0117655D01*
X0012968Y0117590D01*
X0012859Y0117530D01*
X0012748Y0117472D01*
X0012635Y0117419D01*
X0012521Y0117369D01*
X0012405Y0117322D01*
X0012288Y0117280D01*
X0012169Y0117241D01*
X0012049Y0117205D01*
X0011928Y0117174D01*
X0011806Y0117146D01*
X0011684Y0117123D01*
X0011560Y0117103D01*
X0011436Y0117087D01*
X0011312Y0117075D01*
X0011187Y0117067D01*
X0011062Y0117063D01*
X0010938Y0117063D01*
X0010813Y0117067D01*
X0010688Y0117075D01*
X0010564Y0117087D01*
X0010440Y0117103D01*
X0010316Y0117123D01*
X0010194Y0117146D01*
X0010072Y0117174D01*
X0009951Y0117205D01*
X0009831Y0117241D01*
X0009712Y0117280D01*
X0009595Y0117322D01*
X0009479Y0117369D01*
X0009365Y0117419D01*
X0009252Y0117472D01*
X0009141Y0117530D01*
X0009031Y0117590D01*
X0008924Y0117655D01*
X0008819Y0117722D01*
X0008716Y0117793D01*
X0008616Y0117867D01*
X0008518Y0117944D01*
X0008422Y0118025D01*
X0008329Y0118108D01*
X0008238Y0118194D01*
X0008151Y0118283D01*
X0008066Y0118375D01*
X0007984Y0118469D01*
X0007905Y0118566D01*
X0007830Y0118666D01*
X0007757Y0118767D01*
X0007688Y0118871D01*
X0007622Y0118978D01*
X0007560Y0119086D01*
X0007501Y0119196D01*
X0007445Y0119308D01*
X0007393Y0119422D01*
X0007345Y0119537D01*
X0007300Y0119653D01*
X0007260Y0119772D01*
X0007222Y0119891D01*
X0007189Y0120011D01*
X0007160Y0120133D01*
X0007134Y0120255D01*
X0007112Y0120378D01*
X0007095Y0120502D01*
X0007081Y0120626D01*
X0007071Y0120750D01*
X0007065Y0120875D01*
X0007063Y0121000D01*
X0172063Y0121000D02*
X0172065Y0121125D01*
X0172071Y0121250D01*
X0172081Y0121374D01*
X0172095Y0121498D01*
X0172112Y0121622D01*
X0172134Y0121745D01*
X0172160Y0121867D01*
X0172189Y0121989D01*
X0172222Y0122109D01*
X0172260Y0122228D01*
X0172300Y0122347D01*
X0172345Y0122463D01*
X0172393Y0122578D01*
X0172445Y0122692D01*
X0172501Y0122804D01*
X0172560Y0122914D01*
X0172622Y0123022D01*
X0172688Y0123129D01*
X0172757Y0123233D01*
X0172830Y0123334D01*
X0172905Y0123434D01*
X0172984Y0123531D01*
X0173066Y0123625D01*
X0173151Y0123717D01*
X0173238Y0123806D01*
X0173329Y0123892D01*
X0173422Y0123975D01*
X0173518Y0124056D01*
X0173616Y0124133D01*
X0173716Y0124207D01*
X0173819Y0124278D01*
X0173924Y0124345D01*
X0174032Y0124410D01*
X0174141Y0124470D01*
X0174252Y0124528D01*
X0174365Y0124581D01*
X0174479Y0124631D01*
X0174595Y0124678D01*
X0174712Y0124720D01*
X0174831Y0124759D01*
X0174951Y0124795D01*
X0175072Y0124826D01*
X0175194Y0124854D01*
X0175316Y0124877D01*
X0175440Y0124897D01*
X0175564Y0124913D01*
X0175688Y0124925D01*
X0175813Y0124933D01*
X0175938Y0124937D01*
X0176062Y0124937D01*
X0176187Y0124933D01*
X0176312Y0124925D01*
X0176436Y0124913D01*
X0176560Y0124897D01*
X0176684Y0124877D01*
X0176806Y0124854D01*
X0176928Y0124826D01*
X0177049Y0124795D01*
X0177169Y0124759D01*
X0177288Y0124720D01*
X0177405Y0124678D01*
X0177521Y0124631D01*
X0177635Y0124581D01*
X0177748Y0124528D01*
X0177859Y0124470D01*
X0177969Y0124410D01*
X0178076Y0124345D01*
X0178181Y0124278D01*
X0178284Y0124207D01*
X0178384Y0124133D01*
X0178482Y0124056D01*
X0178578Y0123975D01*
X0178671Y0123892D01*
X0178762Y0123806D01*
X0178849Y0123717D01*
X0178934Y0123625D01*
X0179016Y0123531D01*
X0179095Y0123434D01*
X0179170Y0123334D01*
X0179243Y0123233D01*
X0179312Y0123129D01*
X0179378Y0123022D01*
X0179440Y0122914D01*
X0179499Y0122804D01*
X0179555Y0122692D01*
X0179607Y0122578D01*
X0179655Y0122463D01*
X0179700Y0122347D01*
X0179740Y0122228D01*
X0179778Y0122109D01*
X0179811Y0121989D01*
X0179840Y0121867D01*
X0179866Y0121745D01*
X0179888Y0121622D01*
X0179905Y0121498D01*
X0179919Y0121374D01*
X0179929Y0121250D01*
X0179935Y0121125D01*
X0179937Y0121000D01*
X0179935Y0120875D01*
X0179929Y0120750D01*
X0179919Y0120626D01*
X0179905Y0120502D01*
X0179888Y0120378D01*
X0179866Y0120255D01*
X0179840Y0120133D01*
X0179811Y0120011D01*
X0179778Y0119891D01*
X0179740Y0119772D01*
X0179700Y0119653D01*
X0179655Y0119537D01*
X0179607Y0119422D01*
X0179555Y0119308D01*
X0179499Y0119196D01*
X0179440Y0119086D01*
X0179378Y0118978D01*
X0179312Y0118871D01*
X0179243Y0118767D01*
X0179170Y0118666D01*
X0179095Y0118566D01*
X0179016Y0118469D01*
X0178934Y0118375D01*
X0178849Y0118283D01*
X0178762Y0118194D01*
X0178671Y0118108D01*
X0178578Y0118025D01*
X0178482Y0117944D01*
X0178384Y0117867D01*
X0178284Y0117793D01*
X0178181Y0117722D01*
X0178076Y0117655D01*
X0177968Y0117590D01*
X0177859Y0117530D01*
X0177748Y0117472D01*
X0177635Y0117419D01*
X0177521Y0117369D01*
X0177405Y0117322D01*
X0177288Y0117280D01*
X0177169Y0117241D01*
X0177049Y0117205D01*
X0176928Y0117174D01*
X0176806Y0117146D01*
X0176684Y0117123D01*
X0176560Y0117103D01*
X0176436Y0117087D01*
X0176312Y0117075D01*
X0176187Y0117067D01*
X0176062Y0117063D01*
X0175938Y0117063D01*
X0175813Y0117067D01*
X0175688Y0117075D01*
X0175564Y0117087D01*
X0175440Y0117103D01*
X0175316Y0117123D01*
X0175194Y0117146D01*
X0175072Y0117174D01*
X0174951Y0117205D01*
X0174831Y0117241D01*
X0174712Y0117280D01*
X0174595Y0117322D01*
X0174479Y0117369D01*
X0174365Y0117419D01*
X0174252Y0117472D01*
X0174141Y0117530D01*
X0174031Y0117590D01*
X0173924Y0117655D01*
X0173819Y0117722D01*
X0173716Y0117793D01*
X0173616Y0117867D01*
X0173518Y0117944D01*
X0173422Y0118025D01*
X0173329Y0118108D01*
X0173238Y0118194D01*
X0173151Y0118283D01*
X0173066Y0118375D01*
X0172984Y0118469D01*
X0172905Y0118566D01*
X0172830Y0118666D01*
X0172757Y0118767D01*
X0172688Y0118871D01*
X0172622Y0118978D01*
X0172560Y0119086D01*
X0172501Y0119196D01*
X0172445Y0119308D01*
X0172393Y0119422D01*
X0172345Y0119537D01*
X0172300Y0119653D01*
X0172260Y0119772D01*
X0172222Y0119891D01*
X0172189Y0120011D01*
X0172160Y0120133D01*
X0172134Y0120255D01*
X0172112Y0120378D01*
X0172095Y0120502D01*
X0172081Y0120626D01*
X0172071Y0120750D01*
X0172065Y0120875D01*
X0172063Y0121000D01*
X0172063Y0011000D02*
X0172065Y0011125D01*
X0172071Y0011250D01*
X0172081Y0011374D01*
X0172095Y0011498D01*
X0172112Y0011622D01*
X0172134Y0011745D01*
X0172160Y0011867D01*
X0172189Y0011989D01*
X0172222Y0012109D01*
X0172260Y0012228D01*
X0172300Y0012347D01*
X0172345Y0012463D01*
X0172393Y0012578D01*
X0172445Y0012692D01*
X0172501Y0012804D01*
X0172560Y0012914D01*
X0172622Y0013022D01*
X0172688Y0013129D01*
X0172757Y0013233D01*
X0172830Y0013334D01*
X0172905Y0013434D01*
X0172984Y0013531D01*
X0173066Y0013625D01*
X0173151Y0013717D01*
X0173238Y0013806D01*
X0173329Y0013892D01*
X0173422Y0013975D01*
X0173518Y0014056D01*
X0173616Y0014133D01*
X0173716Y0014207D01*
X0173819Y0014278D01*
X0173924Y0014345D01*
X0174032Y0014410D01*
X0174141Y0014470D01*
X0174252Y0014528D01*
X0174365Y0014581D01*
X0174479Y0014631D01*
X0174595Y0014678D01*
X0174712Y0014720D01*
X0174831Y0014759D01*
X0174951Y0014795D01*
X0175072Y0014826D01*
X0175194Y0014854D01*
X0175316Y0014877D01*
X0175440Y0014897D01*
X0175564Y0014913D01*
X0175688Y0014925D01*
X0175813Y0014933D01*
X0175938Y0014937D01*
X0176062Y0014937D01*
X0176187Y0014933D01*
X0176312Y0014925D01*
X0176436Y0014913D01*
X0176560Y0014897D01*
X0176684Y0014877D01*
X0176806Y0014854D01*
X0176928Y0014826D01*
X0177049Y0014795D01*
X0177169Y0014759D01*
X0177288Y0014720D01*
X0177405Y0014678D01*
X0177521Y0014631D01*
X0177635Y0014581D01*
X0177748Y0014528D01*
X0177859Y0014470D01*
X0177969Y0014410D01*
X0178076Y0014345D01*
X0178181Y0014278D01*
X0178284Y0014207D01*
X0178384Y0014133D01*
X0178482Y0014056D01*
X0178578Y0013975D01*
X0178671Y0013892D01*
X0178762Y0013806D01*
X0178849Y0013717D01*
X0178934Y0013625D01*
X0179016Y0013531D01*
X0179095Y0013434D01*
X0179170Y0013334D01*
X0179243Y0013233D01*
X0179312Y0013129D01*
X0179378Y0013022D01*
X0179440Y0012914D01*
X0179499Y0012804D01*
X0179555Y0012692D01*
X0179607Y0012578D01*
X0179655Y0012463D01*
X0179700Y0012347D01*
X0179740Y0012228D01*
X0179778Y0012109D01*
X0179811Y0011989D01*
X0179840Y0011867D01*
X0179866Y0011745D01*
X0179888Y0011622D01*
X0179905Y0011498D01*
X0179919Y0011374D01*
X0179929Y0011250D01*
X0179935Y0011125D01*
X0179937Y0011000D01*
X0179935Y0010875D01*
X0179929Y0010750D01*
X0179919Y0010626D01*
X0179905Y0010502D01*
X0179888Y0010378D01*
X0179866Y0010255D01*
X0179840Y0010133D01*
X0179811Y0010011D01*
X0179778Y0009891D01*
X0179740Y0009772D01*
X0179700Y0009653D01*
X0179655Y0009537D01*
X0179607Y0009422D01*
X0179555Y0009308D01*
X0179499Y0009196D01*
X0179440Y0009086D01*
X0179378Y0008978D01*
X0179312Y0008871D01*
X0179243Y0008767D01*
X0179170Y0008666D01*
X0179095Y0008566D01*
X0179016Y0008469D01*
X0178934Y0008375D01*
X0178849Y0008283D01*
X0178762Y0008194D01*
X0178671Y0008108D01*
X0178578Y0008025D01*
X0178482Y0007944D01*
X0178384Y0007867D01*
X0178284Y0007793D01*
X0178181Y0007722D01*
X0178076Y0007655D01*
X0177968Y0007590D01*
X0177859Y0007530D01*
X0177748Y0007472D01*
X0177635Y0007419D01*
X0177521Y0007369D01*
X0177405Y0007322D01*
X0177288Y0007280D01*
X0177169Y0007241D01*
X0177049Y0007205D01*
X0176928Y0007174D01*
X0176806Y0007146D01*
X0176684Y0007123D01*
X0176560Y0007103D01*
X0176436Y0007087D01*
X0176312Y0007075D01*
X0176187Y0007067D01*
X0176062Y0007063D01*
X0175938Y0007063D01*
X0175813Y0007067D01*
X0175688Y0007075D01*
X0175564Y0007087D01*
X0175440Y0007103D01*
X0175316Y0007123D01*
X0175194Y0007146D01*
X0175072Y0007174D01*
X0174951Y0007205D01*
X0174831Y0007241D01*
X0174712Y0007280D01*
X0174595Y0007322D01*
X0174479Y0007369D01*
X0174365Y0007419D01*
X0174252Y0007472D01*
X0174141Y0007530D01*
X0174031Y0007590D01*
X0173924Y0007655D01*
X0173819Y0007722D01*
X0173716Y0007793D01*
X0173616Y0007867D01*
X0173518Y0007944D01*
X0173422Y0008025D01*
X0173329Y0008108D01*
X0173238Y0008194D01*
X0173151Y0008283D01*
X0173066Y0008375D01*
X0172984Y0008469D01*
X0172905Y0008566D01*
X0172830Y0008666D01*
X0172757Y0008767D01*
X0172688Y0008871D01*
X0172622Y0008978D01*
X0172560Y0009086D01*
X0172501Y0009196D01*
X0172445Y0009308D01*
X0172393Y0009422D01*
X0172345Y0009537D01*
X0172300Y0009653D01*
X0172260Y0009772D01*
X0172222Y0009891D01*
X0172189Y0010011D01*
X0172160Y0010133D01*
X0172134Y0010255D01*
X0172112Y0010378D01*
X0172095Y0010502D01*
X0172081Y0010626D01*
X0172071Y0010750D01*
X0172065Y0010875D01*
X0172063Y0011000D01*
D11*
X0171000Y0023500D02*
X0140000Y0023500D01*
X0140000Y0033000D01*
X0138000Y0034000D01*
X0145000Y0034000D01*
X0144000Y0033000D01*
X0140000Y0033000D01*
X0138000Y0034000D02*
X0138000Y0038000D01*
X0140000Y0039000D01*
X0144000Y0039000D01*
X0145000Y0038000D01*
X0138000Y0038000D01*
X0138000Y0054000D01*
X0140000Y0053000D01*
X0144000Y0053000D01*
X0145000Y0054000D01*
X0138000Y0054000D01*
X0138000Y0058000D01*
X0140000Y0059000D01*
X0144000Y0059000D01*
X0145000Y0058000D01*
X0138000Y0058000D01*
X0138000Y0074000D01*
X0140000Y0073000D01*
X0144000Y0073000D01*
X0144000Y0059000D01*
X0145000Y0058000D02*
X0145000Y0074000D01*
X0144000Y0073000D01*
X0145000Y0074000D02*
X0138000Y0074000D01*
X0138000Y0078000D01*
X0140000Y0079000D01*
X0144000Y0079000D01*
X0144000Y0093000D01*
X0145000Y0094000D01*
X0138000Y0094000D01*
X0140000Y0093000D01*
X0144000Y0093000D01*
X0145000Y0094000D02*
X0145000Y0098000D01*
X0144000Y0099000D01*
X0140000Y0099000D01*
X0138000Y0098000D01*
X0145000Y0098000D01*
X0145000Y0106000D01*
X0166000Y0106000D01*
X0166000Y0104300D01*
X0171000Y0108500D02*
X0140000Y0108500D01*
X0140000Y0099000D01*
X0138000Y0098000D02*
X0138000Y0108500D01*
X0140000Y0108500D01*
X0144000Y0106000D02*
X0144000Y0099000D01*
X0138000Y0098000D02*
X0138000Y0094000D01*
X0138000Y0078000D01*
X0145000Y0078000D01*
X0144000Y0079000D01*
X0145000Y0078000D02*
X0145000Y0094000D01*
X0140000Y0093000D02*
X0140000Y0079000D01*
X0145000Y0078000D02*
X0145000Y0074000D01*
X0140000Y0073000D02*
X0140000Y0059000D01*
X0145000Y0058000D02*
X0145000Y0054000D01*
X0145000Y0038000D01*
X0145000Y0034000D01*
X0145000Y0026000D01*
X0144000Y0026000D01*
X0144000Y0033000D01*
X0138000Y0034000D02*
X0138000Y0023500D01*
X0140000Y0023500D01*
X0145000Y0026000D02*
X0166000Y0026000D01*
X0166000Y0027700D01*
X0171000Y0023500D02*
X0171000Y0108500D01*
X0170000Y0096000D02*
X0169997Y0095744D01*
X0169987Y0095488D01*
X0169972Y0095232D01*
X0169950Y0094977D01*
X0169922Y0094722D01*
X0169888Y0094468D01*
X0169847Y0094215D01*
X0169801Y0093963D01*
X0169748Y0093712D01*
X0169689Y0093463D01*
X0169624Y0093215D01*
X0169553Y0092969D01*
X0169476Y0092725D01*
X0169393Y0092482D01*
X0169304Y0092242D01*
X0169210Y0092004D01*
X0169109Y0091768D01*
X0169003Y0091535D01*
X0168891Y0091304D01*
X0168774Y0091077D01*
X0168651Y0090852D01*
X0168523Y0090630D01*
X0168389Y0090411D01*
X0168250Y0090196D01*
X0168106Y0089984D01*
X0167957Y0089776D01*
X0167802Y0089572D01*
X0167643Y0089371D01*
X0167479Y0089174D01*
X0167310Y0088982D01*
X0167136Y0088793D01*
X0166958Y0088609D01*
X0166776Y0088429D01*
X0166589Y0088254D01*
X0166398Y0088083D01*
X0166202Y0087917D01*
X0166003Y0087756D01*
X0165800Y0087600D01*
X0166000Y0087500D02*
X0166000Y0084500D01*
X0170000Y0076000D02*
X0169997Y0075744D01*
X0169987Y0075488D01*
X0169972Y0075232D01*
X0169950Y0074977D01*
X0169922Y0074722D01*
X0169888Y0074468D01*
X0169847Y0074215D01*
X0169801Y0073963D01*
X0169748Y0073712D01*
X0169689Y0073463D01*
X0169624Y0073215D01*
X0169553Y0072969D01*
X0169476Y0072725D01*
X0169393Y0072482D01*
X0169304Y0072242D01*
X0169210Y0072004D01*
X0169109Y0071768D01*
X0169003Y0071535D01*
X0168891Y0071304D01*
X0168774Y0071077D01*
X0168651Y0070852D01*
X0168523Y0070630D01*
X0168389Y0070411D01*
X0168250Y0070196D01*
X0168106Y0069984D01*
X0167957Y0069776D01*
X0167802Y0069572D01*
X0167643Y0069371D01*
X0167479Y0069174D01*
X0167310Y0068982D01*
X0167136Y0068793D01*
X0166958Y0068609D01*
X0166776Y0068429D01*
X0166589Y0068254D01*
X0166398Y0068083D01*
X0166202Y0067917D01*
X0166003Y0067756D01*
X0165800Y0067600D01*
X0166000Y0067500D02*
X0166000Y0064500D01*
X0170000Y0056000D02*
X0169997Y0055744D01*
X0169987Y0055488D01*
X0169972Y0055232D01*
X0169950Y0054977D01*
X0169922Y0054722D01*
X0169888Y0054468D01*
X0169847Y0054215D01*
X0169801Y0053963D01*
X0169748Y0053712D01*
X0169689Y0053463D01*
X0169624Y0053215D01*
X0169553Y0052969D01*
X0169476Y0052725D01*
X0169393Y0052482D01*
X0169304Y0052242D01*
X0169210Y0052004D01*
X0169109Y0051768D01*
X0169003Y0051535D01*
X0168891Y0051304D01*
X0168774Y0051077D01*
X0168651Y0050852D01*
X0168523Y0050630D01*
X0168389Y0050411D01*
X0168250Y0050196D01*
X0168106Y0049984D01*
X0167957Y0049776D01*
X0167802Y0049572D01*
X0167643Y0049371D01*
X0167479Y0049174D01*
X0167310Y0048982D01*
X0167136Y0048793D01*
X0166958Y0048609D01*
X0166776Y0048429D01*
X0166589Y0048254D01*
X0166398Y0048083D01*
X0166202Y0047917D01*
X0166003Y0047756D01*
X0165800Y0047600D01*
X0166000Y0047500D02*
X0166000Y0044500D01*
X0170000Y0036000D02*
X0169997Y0035744D01*
X0169987Y0035488D01*
X0169972Y0035232D01*
X0169950Y0034977D01*
X0169922Y0034722D01*
X0169888Y0034468D01*
X0169847Y0034215D01*
X0169801Y0033963D01*
X0169748Y0033712D01*
X0169689Y0033463D01*
X0169624Y0033215D01*
X0169553Y0032969D01*
X0169476Y0032725D01*
X0169393Y0032482D01*
X0169304Y0032242D01*
X0169210Y0032004D01*
X0169109Y0031768D01*
X0169003Y0031535D01*
X0168891Y0031304D01*
X0168774Y0031077D01*
X0168651Y0030852D01*
X0168523Y0030630D01*
X0168389Y0030411D01*
X0168250Y0030196D01*
X0168106Y0029984D01*
X0167957Y0029776D01*
X0167802Y0029572D01*
X0167643Y0029371D01*
X0167479Y0029174D01*
X0167310Y0028982D01*
X0167136Y0028793D01*
X0166958Y0028609D01*
X0166776Y0028429D01*
X0166589Y0028254D01*
X0166398Y0028083D01*
X0166202Y0027917D01*
X0166003Y0027756D01*
X0165800Y0027600D01*
X0170000Y0036000D02*
X0169997Y0036256D01*
X0169987Y0036512D01*
X0169972Y0036768D01*
X0169950Y0037023D01*
X0169922Y0037278D01*
X0169888Y0037532D01*
X0169847Y0037785D01*
X0169801Y0038037D01*
X0169748Y0038288D01*
X0169689Y0038537D01*
X0169624Y0038785D01*
X0169553Y0039031D01*
X0169476Y0039275D01*
X0169393Y0039518D01*
X0169304Y0039758D01*
X0169210Y0039996D01*
X0169109Y0040232D01*
X0169003Y0040465D01*
X0168891Y0040696D01*
X0168774Y0040923D01*
X0168651Y0041148D01*
X0168523Y0041370D01*
X0168389Y0041589D01*
X0168250Y0041804D01*
X0168106Y0042016D01*
X0167957Y0042224D01*
X0167802Y0042428D01*
X0167643Y0042629D01*
X0167479Y0042826D01*
X0167310Y0043018D01*
X0167136Y0043207D01*
X0166958Y0043391D01*
X0166776Y0043571D01*
X0166589Y0043746D01*
X0166398Y0043917D01*
X0166202Y0044083D01*
X0166003Y0044244D01*
X0165800Y0044400D01*
X0170000Y0056000D02*
X0169997Y0056256D01*
X0169987Y0056512D01*
X0169972Y0056768D01*
X0169950Y0057023D01*
X0169922Y0057278D01*
X0169888Y0057532D01*
X0169847Y0057785D01*
X0169801Y0058037D01*
X0169748Y0058288D01*
X0169689Y0058537D01*
X0169624Y0058785D01*
X0169553Y0059031D01*
X0169476Y0059275D01*
X0169393Y0059518D01*
X0169304Y0059758D01*
X0169210Y0059996D01*
X0169109Y0060232D01*
X0169003Y0060465D01*
X0168891Y0060696D01*
X0168774Y0060923D01*
X0168651Y0061148D01*
X0168523Y0061370D01*
X0168389Y0061589D01*
X0168250Y0061804D01*
X0168106Y0062016D01*
X0167957Y0062224D01*
X0167802Y0062428D01*
X0167643Y0062629D01*
X0167479Y0062826D01*
X0167310Y0063018D01*
X0167136Y0063207D01*
X0166958Y0063391D01*
X0166776Y0063571D01*
X0166589Y0063746D01*
X0166398Y0063917D01*
X0166202Y0064083D01*
X0166003Y0064244D01*
X0165800Y0064400D01*
X0170000Y0076000D02*
X0169997Y0076256D01*
X0169987Y0076512D01*
X0169972Y0076768D01*
X0169950Y0077023D01*
X0169922Y0077278D01*
X0169888Y0077532D01*
X0169847Y0077785D01*
X0169801Y0078037D01*
X0169748Y0078288D01*
X0169689Y0078537D01*
X0169624Y0078785D01*
X0169553Y0079031D01*
X0169476Y0079275D01*
X0169393Y0079518D01*
X0169304Y0079758D01*
X0169210Y0079996D01*
X0169109Y0080232D01*
X0169003Y0080465D01*
X0168891Y0080696D01*
X0168774Y0080923D01*
X0168651Y0081148D01*
X0168523Y0081370D01*
X0168389Y0081589D01*
X0168250Y0081804D01*
X0168106Y0082016D01*
X0167957Y0082224D01*
X0167802Y0082428D01*
X0167643Y0082629D01*
X0167479Y0082826D01*
X0167310Y0083018D01*
X0167136Y0083207D01*
X0166958Y0083391D01*
X0166776Y0083571D01*
X0166589Y0083746D01*
X0166398Y0083917D01*
X0166202Y0084083D01*
X0166003Y0084244D01*
X0165800Y0084400D01*
X0170000Y0096000D02*
X0169997Y0096256D01*
X0169987Y0096512D01*
X0169972Y0096768D01*
X0169950Y0097023D01*
X0169922Y0097278D01*
X0169888Y0097532D01*
X0169847Y0097785D01*
X0169801Y0098037D01*
X0169748Y0098288D01*
X0169689Y0098537D01*
X0169624Y0098785D01*
X0169553Y0099031D01*
X0169476Y0099275D01*
X0169393Y0099518D01*
X0169304Y0099758D01*
X0169210Y0099996D01*
X0169109Y0100232D01*
X0169003Y0100465D01*
X0168891Y0100696D01*
X0168774Y0100923D01*
X0168651Y0101148D01*
X0168523Y0101370D01*
X0168389Y0101589D01*
X0168250Y0101804D01*
X0168106Y0102016D01*
X0167957Y0102224D01*
X0167802Y0102428D01*
X0167643Y0102629D01*
X0167479Y0102826D01*
X0167310Y0103018D01*
X0167136Y0103207D01*
X0166958Y0103391D01*
X0166776Y0103571D01*
X0166589Y0103746D01*
X0166398Y0103917D01*
X0166202Y0104083D01*
X0166003Y0104244D01*
X0165800Y0104400D01*
X0145000Y0106000D02*
X0144000Y0106000D01*
X0130700Y0107877D02*
X0130700Y0103606D01*
X0126430Y0107877D01*
X0125362Y0107877D01*
X0124295Y0106809D01*
X0124295Y0104674D01*
X0125362Y0103606D01*
X0126430Y0101431D02*
X0130700Y0097161D01*
X0130700Y0101431D01*
X0126430Y0101431D02*
X0126430Y0097161D01*
X0119132Y0090689D02*
X0120200Y0089621D01*
X0120200Y0087486D01*
X0119132Y0086418D01*
X0114862Y0086418D01*
X0113795Y0087486D01*
X0113795Y0089621D01*
X0114862Y0090689D01*
X0116997Y0090689D01*
X0118065Y0089621D01*
X0115930Y0089621D01*
X0115930Y0087486D01*
X0118065Y0087486D01*
X0118065Y0089621D01*
X0109700Y0087473D02*
X0109700Y0085338D01*
X0108632Y0084270D01*
X0104362Y0084270D01*
X0103295Y0085338D01*
X0103295Y0087473D01*
X0104362Y0088540D01*
X0104362Y0090715D02*
X0108632Y0090715D01*
X0109700Y0091783D01*
X0109700Y0093918D01*
X0108632Y0094986D01*
X0104362Y0094986D01*
X0103295Y0093918D01*
X0103295Y0091783D01*
X0104362Y0090715D01*
X0108632Y0088540D02*
X0109700Y0087473D01*
X0109700Y0082108D02*
X0109700Y0079973D01*
X0109700Y0081041D02*
X0103295Y0081041D01*
X0103295Y0082108D02*
X0103295Y0079973D01*
X0104362Y0077798D02*
X0106497Y0077798D01*
X0107565Y0076730D01*
X0107565Y0073527D01*
X0107565Y0075663D02*
X0109700Y0077798D01*
X0113795Y0076730D02*
X0114862Y0077798D01*
X0116997Y0077798D01*
X0118065Y0076730D01*
X0118065Y0073527D01*
X0120200Y0073527D02*
X0113795Y0073527D01*
X0113795Y0076730D01*
X0118065Y0075663D02*
X0120200Y0077798D01*
X0123227Y0074595D02*
X0124295Y0074595D01*
X0126430Y0074595D02*
X0130700Y0074595D01*
X0130700Y0073527D02*
X0130700Y0075663D01*
X0130700Y0077824D02*
X0126430Y0077824D01*
X0126430Y0081027D01*
X0127497Y0082095D01*
X0130700Y0082095D01*
X0129632Y0084270D02*
X0130700Y0085338D01*
X0130700Y0088540D01*
X0131768Y0088540D02*
X0126430Y0088540D01*
X0126430Y0085338D01*
X0127497Y0084270D01*
X0129632Y0084270D01*
X0132835Y0086405D02*
X0132835Y0087473D01*
X0131768Y0088540D01*
X0126430Y0074595D02*
X0126430Y0073527D01*
X0126430Y0071366D02*
X0126430Y0069230D01*
X0125362Y0070298D02*
X0129632Y0070298D01*
X0130700Y0071366D01*
X0130700Y0067055D02*
X0127497Y0067055D01*
X0126430Y0065988D01*
X0126430Y0063853D01*
X0127497Y0062785D01*
X0126430Y0060610D02*
X0126430Y0057407D01*
X0127497Y0056339D01*
X0129632Y0056339D01*
X0130700Y0057407D01*
X0130700Y0060610D01*
X0130700Y0062785D02*
X0124295Y0062785D01*
X0120200Y0064907D02*
X0116997Y0061704D01*
X0118065Y0060636D02*
X0113795Y0064907D01*
X0113795Y0067082D02*
X0120200Y0067082D01*
X0120200Y0071352D01*
X0116997Y0069217D02*
X0116997Y0067082D01*
X0113795Y0067082D02*
X0113795Y0071352D01*
X0109700Y0071352D02*
X0103295Y0071352D01*
X0103295Y0073527D02*
X0103295Y0076730D01*
X0104362Y0077798D01*
X0103295Y0073527D02*
X0109700Y0073527D01*
X0109700Y0071352D02*
X0103295Y0067082D01*
X0109700Y0067082D01*
X0109700Y0064907D02*
X0109700Y0060636D01*
X0103295Y0060636D01*
X0103295Y0064907D01*
X0106497Y0062772D02*
X0106497Y0060636D01*
X0113795Y0060636D02*
X0120200Y0060636D01*
X0119132Y0058461D02*
X0120200Y0057394D01*
X0120200Y0055259D01*
X0119132Y0054191D01*
X0114862Y0054191D01*
X0113795Y0055259D01*
X0113795Y0057394D01*
X0114862Y0058461D01*
X0113795Y0052016D02*
X0113795Y0047745D01*
X0120200Y0047745D01*
X0120200Y0052016D01*
X0116997Y0049881D02*
X0116997Y0047745D01*
X0115930Y0045570D02*
X0116997Y0044503D01*
X0116997Y0041300D01*
X0113795Y0041300D02*
X0120200Y0041300D01*
X0120200Y0044503D01*
X0119132Y0045570D01*
X0118065Y0045570D01*
X0116997Y0044503D01*
X0115930Y0045570D02*
X0114862Y0045570D01*
X0113795Y0044503D01*
X0113795Y0041300D01*
X0109700Y0041300D02*
X0109700Y0044503D01*
X0108632Y0045570D01*
X0107565Y0045570D01*
X0106497Y0044503D01*
X0106497Y0041300D01*
X0103295Y0041300D02*
X0103295Y0044503D01*
X0104362Y0045570D01*
X0105430Y0045570D01*
X0106497Y0044503D01*
X0104362Y0047745D02*
X0103295Y0047745D01*
X0104362Y0047745D02*
X0106497Y0049881D01*
X0109700Y0049881D01*
X0106497Y0049881D02*
X0104362Y0052016D01*
X0103295Y0052016D01*
X0099200Y0052016D02*
X0094930Y0052016D01*
X0092795Y0049881D01*
X0094930Y0047745D01*
X0099200Y0047745D01*
X0098132Y0045570D02*
X0099200Y0044503D01*
X0099200Y0042368D01*
X0098132Y0041300D01*
X0093862Y0041300D01*
X0092795Y0042368D01*
X0092795Y0044503D01*
X0093862Y0045570D01*
X0095997Y0047745D02*
X0095997Y0052016D01*
X0092795Y0054191D02*
X0092795Y0058461D01*
X0092795Y0056326D02*
X0099200Y0056326D01*
X0095997Y0060636D02*
X0095997Y0064907D01*
X0092795Y0067082D02*
X0095997Y0071352D01*
X0099200Y0067082D01*
X0098132Y0073527D02*
X0099200Y0074595D01*
X0099200Y0076730D01*
X0098132Y0077798D01*
X0097065Y0077798D01*
X0095997Y0076730D01*
X0095997Y0074595D01*
X0094930Y0073527D01*
X0093862Y0073527D01*
X0092795Y0074595D01*
X0092795Y0076730D01*
X0093862Y0077798D01*
X0092795Y0079973D02*
X0092795Y0084243D01*
X0092795Y0082108D02*
X0099200Y0082108D01*
X0099200Y0086418D02*
X0099200Y0090689D01*
X0099200Y0092864D02*
X0092795Y0092864D01*
X0092795Y0096067D01*
X0093862Y0097134D01*
X0095997Y0097134D01*
X0097065Y0096067D01*
X0097065Y0092864D01*
X0095997Y0088554D02*
X0095997Y0086418D01*
X0092795Y0086418D02*
X0099200Y0086418D01*
X0092795Y0086418D02*
X0092795Y0090689D01*
X0093500Y0101000D02*
X0091000Y0103500D01*
X0088500Y0101000D01*
X0083500Y0101000D01*
X0081000Y0103500D01*
X0081000Y0108500D01*
X0083500Y0111000D01*
X0088500Y0111000D01*
X0091000Y0108500D01*
X0093500Y0111000D01*
X0098500Y0111000D01*
X0101000Y0108500D01*
X0103500Y0111000D01*
X0108500Y0111000D01*
X0111000Y0108500D01*
X0111000Y0103500D01*
X0108500Y0101000D01*
X0103500Y0101000D01*
X0101000Y0103500D01*
X0098500Y0101000D01*
X0093500Y0101000D01*
X0091000Y0103500D02*
X0091000Y0108500D01*
X0101000Y0108500D02*
X0101000Y0103500D01*
X0106300Y0116300D02*
X0110570Y0122705D01*
X0107785Y0122705D02*
X0107785Y0116300D01*
X0110570Y0116300D02*
X0106300Y0122705D01*
X0124295Y0114322D02*
X0124295Y0110052D01*
X0127497Y0110052D01*
X0126430Y0112187D01*
X0126430Y0113255D01*
X0127497Y0114322D01*
X0129632Y0114322D01*
X0130700Y0113255D01*
X0130700Y0111120D01*
X0129632Y0110052D01*
X0129632Y0116497D02*
X0129632Y0117565D01*
X0130700Y0117565D01*
X0130700Y0116497D01*
X0129632Y0116497D01*
X0129632Y0119720D02*
X0127497Y0119720D01*
X0126430Y0120788D01*
X0126430Y0122923D01*
X0127497Y0123991D01*
X0129632Y0123991D01*
X0130700Y0122923D01*
X0130700Y0120788D01*
X0129632Y0119720D01*
X0128565Y0126166D02*
X0126430Y0128301D01*
X0126430Y0129368D01*
X0127497Y0131537D02*
X0129632Y0131537D01*
X0130700Y0132605D01*
X0130700Y0135807D01*
X0131768Y0135807D02*
X0126430Y0135807D01*
X0126430Y0132605D01*
X0127497Y0131537D01*
X0132835Y0133672D02*
X0132835Y0134740D01*
X0131768Y0135807D01*
X0130700Y0126166D02*
X0126430Y0126166D01*
X0086300Y0122705D02*
X0086300Y0116300D01*
X0077095Y0116300D02*
X0077095Y0120570D01*
X0074960Y0122705D01*
X0072824Y0120570D01*
X0072824Y0116300D01*
X0072824Y0119503D02*
X0077095Y0119503D01*
X0064204Y0117368D02*
X0064204Y0121638D01*
X0063136Y0122705D01*
X0061001Y0122705D01*
X0059933Y0121638D01*
X0059933Y0117368D01*
X0061001Y0116300D01*
X0063136Y0116300D01*
X0064204Y0117368D01*
X0057758Y0116300D02*
X0055623Y0118435D01*
X0056691Y0118435D02*
X0053488Y0118435D01*
X0053488Y0116300D02*
X0053488Y0122705D01*
X0056691Y0122705D01*
X0057758Y0121638D01*
X0057758Y0119503D01*
X0056691Y0118435D01*
X0051313Y0117368D02*
X0050245Y0116300D01*
X0048110Y0116300D01*
X0047042Y0117368D01*
X0047042Y0121638D01*
X0048110Y0122705D01*
X0050245Y0122705D01*
X0051313Y0121638D01*
X0044881Y0122705D02*
X0042745Y0122705D01*
X0043813Y0122705D02*
X0043813Y0116300D01*
X0042745Y0116300D02*
X0044881Y0116300D01*
X0040570Y0116300D02*
X0040570Y0122705D01*
X0038435Y0120570D01*
X0036300Y0122705D01*
X0036300Y0116300D01*
X0123227Y0053110D02*
X0124295Y0053110D01*
X0126430Y0053110D02*
X0126430Y0052042D01*
X0126430Y0053110D02*
X0130700Y0053110D01*
X0130700Y0052042D02*
X0130700Y0054178D01*
X0130700Y0049881D02*
X0129632Y0048813D01*
X0125362Y0048813D01*
X0126430Y0047745D02*
X0126430Y0049881D01*
X0126430Y0045570D02*
X0126430Y0042368D01*
X0127497Y0041300D01*
X0128565Y0042368D01*
X0128565Y0044503D01*
X0129632Y0045570D01*
X0130700Y0044503D01*
X0130700Y0041300D01*
X0140000Y0039000D02*
X0140000Y0053000D01*
X0144000Y0053000D02*
X0144000Y0039000D01*
X0109700Y0041300D02*
X0103295Y0041300D01*
X0103500Y0031000D02*
X0108500Y0031000D01*
X0111000Y0028500D01*
X0111000Y0023500D01*
X0108500Y0021000D01*
X0103500Y0021000D01*
X0101000Y0023500D01*
X0098500Y0021000D01*
X0093500Y0021000D01*
X0091000Y0023500D01*
X0088500Y0021000D01*
X0083500Y0021000D01*
X0081000Y0023500D01*
X0081000Y0028500D01*
X0083500Y0031000D01*
X0088500Y0031000D01*
X0091000Y0028500D01*
X0093500Y0031000D01*
X0098500Y0031000D01*
X0101000Y0028500D01*
X0103500Y0031000D01*
X0101000Y0028500D02*
X0101000Y0023500D01*
X0106300Y0017705D02*
X0110570Y0011300D01*
X0107785Y0011300D02*
X0107785Y0017705D01*
X0110570Y0017705D02*
X0106300Y0011300D01*
X0091000Y0023500D02*
X0091000Y0028500D01*
X0086300Y0017705D02*
X0086300Y0011300D01*
X0077095Y0012368D02*
X0076027Y0011300D01*
X0072824Y0011300D01*
X0072824Y0017705D01*
X0076027Y0017705D01*
X0077095Y0016638D01*
X0077095Y0015570D01*
X0076027Y0014503D01*
X0072824Y0014503D01*
X0076027Y0014503D02*
X0077095Y0013435D01*
X0077095Y0012368D01*
X0064204Y0012368D02*
X0064204Y0016638D01*
X0063136Y0017705D01*
X0061001Y0017705D01*
X0059933Y0016638D01*
X0059933Y0012368D01*
X0061001Y0011300D01*
X0063136Y0011300D01*
X0064204Y0012368D01*
X0057758Y0011300D02*
X0055623Y0013435D01*
X0056691Y0013435D02*
X0053488Y0013435D01*
X0053488Y0011300D02*
X0053488Y0017705D01*
X0056691Y0017705D01*
X0057758Y0016638D01*
X0057758Y0014503D01*
X0056691Y0013435D01*
X0051313Y0012368D02*
X0050245Y0011300D01*
X0048110Y0011300D01*
X0047042Y0012368D01*
X0047042Y0016638D01*
X0048110Y0017705D01*
X0050245Y0017705D01*
X0051313Y0016638D01*
X0044881Y0017705D02*
X0042745Y0017705D01*
X0043813Y0017705D02*
X0043813Y0011300D01*
X0042745Y0011300D02*
X0044881Y0011300D01*
X0040570Y0011300D02*
X0040570Y0017705D01*
X0038435Y0015570D01*
X0036300Y0017705D01*
X0036300Y0011300D01*
D12*
X0007000Y0034000D02*
X0007000Y0096000D01*
X0003000Y0096000D01*
X0003000Y0034000D01*
X0007000Y0034000D01*
X0066000Y0034000D01*
X0066000Y0096000D01*
X0007000Y0096000D01*
X0082451Y0037954D02*
X0083953Y0037954D01*
X0083202Y0037954D02*
X0083202Y0034201D01*
X0082451Y0033450D01*
X0081701Y0033450D01*
X0080950Y0034201D01*
X0085554Y0034951D02*
X0087806Y0034951D01*
X0088556Y0035702D01*
X0088556Y0037203D01*
X0087806Y0037954D01*
X0085554Y0037954D01*
X0085554Y0033450D01*
X0090158Y0033450D02*
X0093160Y0033450D01*
X0091659Y0033450D02*
X0091659Y0037954D01*
X0090158Y0036453D01*
X0159746Y0029251D02*
X0161247Y0027750D01*
X0159746Y0029251D02*
X0164250Y0029251D01*
X0164250Y0027750D02*
X0164250Y0030753D01*
X0164250Y0046250D02*
X0161247Y0049253D01*
X0160497Y0049253D01*
X0159746Y0048502D01*
X0159746Y0047001D01*
X0160497Y0046250D01*
X0164250Y0046250D02*
X0164250Y0049253D01*
X0163499Y0066250D02*
X0164250Y0067001D01*
X0164250Y0068502D01*
X0163499Y0069253D01*
X0162749Y0069253D01*
X0161998Y0068502D01*
X0161998Y0067751D01*
X0161998Y0068502D02*
X0161247Y0069253D01*
X0160497Y0069253D01*
X0159746Y0068502D01*
X0159746Y0067001D01*
X0160497Y0066250D01*
X0161998Y0086250D02*
X0161998Y0089253D01*
X0159746Y0088502D02*
X0161998Y0086250D01*
X0164250Y0088502D02*
X0159746Y0088502D01*
X0109949Y0094050D02*
X0106946Y0094050D01*
X0109949Y0097053D01*
X0109949Y0097803D01*
X0109198Y0098554D01*
X0107697Y0098554D01*
X0106946Y0097803D01*
X0105345Y0097803D02*
X0105345Y0096302D01*
X0104594Y0095551D01*
X0102342Y0095551D01*
X0102342Y0094050D02*
X0102342Y0098554D01*
X0104594Y0098554D01*
X0105345Y0097803D01*
X0100741Y0098554D02*
X0099239Y0098554D01*
X0099990Y0098554D02*
X0099990Y0094801D01*
X0099239Y0094050D01*
X0098489Y0094050D01*
X0097738Y0094801D01*
D13*
X0179650Y0034499D02*
X0179650Y0030295D01*
X0179650Y0032397D02*
X0173345Y0032397D01*
X0175446Y0030295D01*
X0173345Y0028054D02*
X0179650Y0023850D01*
X0179650Y0028054D02*
X0173345Y0023850D01*
M02*
