<?xml version="1.0" encoding="UTF-8" standalone="no"?><svg xmlns="http://www.w3.org/2000/svg" xmlns:xlink="http://www.w3.org/1999/xlink" contentScriptType="application/ecmascript" contentStyleType="text/css" height="1340px" preserveAspectRatio="none" style="width:1377px;height:1340px;" version="1.1" viewBox="0 0 1377 1340" width="1377px" zoomAndPan="magnify"><defs><linearGradient id="grv0pmen396nw0" x1="0%" x2="100%" y1="50%" y2="50%"><stop offset="0%" stop-color="#FFFFFF"/><stop offset="100%" stop-color="#FFFFFF"/></linearGradient><filter height="300%" id="frv0pmen396nw" width="300%" x="-1" y="-1"><feGaussianBlur result="blurOut" stdDeviation="2.0"/><feColorMatrix in="blurOut" result="blurOut2" type="matrix" values="0 0 0 0 0 0 0 0 0 0 0 0 0 0 0 0 0 0 .4 0"/><feOffset dx="4.0" dy="4.0" in="blurOut2" result="blurOut3"/><feBlend in="SourceGraphic" in2="blurOut3" mode="normal"/></filter></defs><g><rect fill="url(#grv0pmen396nw0)" height="1340" style="stroke: none; stroke-width: 1.0;" width="1377" x="0" y="0"/><text fill="#000000" font-family="sans-serif" font-size="18" lengthAdjust="spacingAndGlyphs" textLength="339" x="525.5" y="16.708">OSC Motor Controller - State Diagram</text><!--cluster uninit--><rect fill="#FEFECE" filter="url(#frv0pmen396nw)" height="935" rx="12.5" ry="12.5" style="stroke: #A80036; stroke-width: 1.5;" width="546" x="817" y="36.9531"/><rect fill="url(#grv0pmen396nw0)" height="902.7031" rx="12.5" ry="12.5" style="stroke: url(#grv0pmen396nw0); stroke-width: 1.0;" width="540" x="820" y="66.25"/><line style="stroke: #A80036; stroke-width: 1.5;" x1="817" x2="1363" y1="63.25" y2="63.25"/><text fill="#000000" font-family="sans-serif" font-size="14" lengthAdjust="spacingAndGlyphs" textLength="81" x="1049.5" y="53.9482">uninitialized</text><!--cluster init--><rect fill="#FEFECE" filter="url(#frv0pmen396nw)" height="1170" rx="12.5" ry="12.5" style="stroke: #A80036; stroke-width: 1.5;" width="618" x="14" y="159.9531"/><rect fill="url(#grv0pmen396nw0)" height="1137.7031" rx="12.5" ry="12.5" style="stroke: url(#grv0pmen396nw0); stroke-width: 1.0;" width="612" x="17" y="189.25"/><line style="stroke: #A80036; stroke-width: 1.5;" x1="14" x2="632" y1="186.25" y2="186.25"/><text fill="#000000" font-family="sans-serif" font-size="14" lengthAdjust="spacingAndGlyphs" textLength="63" x="291.5" y="176.9482">initialized</text><rect fill="#FEFECE" filter="url(#frv0pmen396nw)" height="50.2656" rx="12.5" ry="12.5" style="stroke: #A80036; stroke-width: 1.5;" width="127" x="1052.5" y="67.4531"/><line style="stroke: #A80036; stroke-width: 1.5;" x1="1052.5" x2="1179.5" y1="93.75" y2="93.75"/><text fill="#000000" font-family="sans-serif" font-size="14" lengthAdjust="spacingAndGlyphs" textLength="71" x="1080.5" y="85.4482">STOP c=0</text><text fill="#000000" font-family="sans-serif" font-size="12" lengthAdjust="spacingAndGlyphs" textLength="107" x="1057.5" y="109.8887">motor is stopped</text><ellipse cx="1007" cy="92.4531" fill="#000000" filter="url(#frv0pmen396nw)" rx="10" ry="10" style="stroke: none; stroke-width: 1.0;"/><rect fill="#FEFECE" filter="url(#frv0pmen396nw)" height="50.2656" rx="12.5" ry="12.5" style="stroke: #A80036; stroke-width: 1.5;" width="112" x="896" y="315.4531"/><line style="stroke: #A80036; stroke-width: 1.5;" x1="896" x2="1008" y1="341.75" y2="341.75"/><text fill="#000000" font-family="sans-serif" font-size="14" lengthAdjust="spacingAndGlyphs" textLength="80" x="912" y="333.4482">GOMIN c=2</text><text fill="#000000" font-family="sans-serif" font-size="12" lengthAdjust="spacingAndGlyphs" textLength="92" x="901" y="357.8887">go to minimum</text><rect fill="#FEFECE" filter="url(#frv0pmen396nw)" height="50.2656" rx="12.5" ry="12.5" style="stroke: #A80036; stroke-width: 1.5;" width="115" x="1035.5" y="574.4531"/><line style="stroke: #A80036; stroke-width: 1.5;" x1="1035.5" x2="1150.5" y1="600.75" y2="600.75"/><text fill="#000000" font-family="sans-serif" font-size="14" lengthAdjust="spacingAndGlyphs" textLength="85" x="1050.5" y="592.4482">GOMAX c=3</text><text fill="#000000" font-family="sans-serif" font-size="12" lengthAdjust="spacingAndGlyphs" textLength="95" x="1040.5" y="616.8887">go to maximum</text><rect fill="#FEFECE" filter="url(#frv0pmen396nw)" height="118.2969" rx="12.5" ry="12.5" style="stroke: #A80036; stroke-width: 1.5;" width="459" x="825.5" y="845.9531"/><rect fill="url(#grv0pmen396nw0)" height="86" rx="12.5" ry="12.5" style="stroke: url(#grv0pmen396nw0); stroke-width: 1.0;" width="453" x="828.5" y="875.25"/><line style="stroke: #A80036; stroke-width: 1.5;" x1="825.5" x2="1284.5" y1="872.25" y2="872.25"/><text fill="#000000" font-family="sans-serif" font-size="14" lengthAdjust="spacingAndGlyphs" textLength="58" x="1026" y="863.9482">INIT c=1</text><rect fill="#FEFECE" filter="url(#frv0pmen396nw)" height="50.2656" rx="12.5" ry="12.5" style="stroke: #A80036; stroke-width: 1.5;" width="112" x="836.5" y="892.25"/><line style="stroke: #A80036; stroke-width: 1.5;" x1="836.5" x2="948.5" y1="918.5469" y2="918.5469"/><text fill="#000000" font-family="sans-serif" font-size="14" lengthAdjust="spacingAndGlyphs" textLength="34" x="875.5" y="910.2451">INIT1</text><text fill="#000000" font-family="sans-serif" font-size="12" lengthAdjust="spacingAndGlyphs" textLength="92" x="841.5" y="934.6855">go to minimum</text><rect fill="#FEFECE" filter="url(#frv0pmen396nw)" height="50.2656" rx="12.5" ry="12.5" style="stroke: #A80036; stroke-width: 1.5;" width="115" x="967" y="892.25"/><line style="stroke: #A80036; stroke-width: 1.5;" x1="967" x2="1082" y1="918.5469" y2="918.5469"/><text fill="#000000" font-family="sans-serif" font-size="14" lengthAdjust="spacingAndGlyphs" textLength="34" x="1007.5" y="910.2451">INIT2</text><text fill="#000000" font-family="sans-serif" font-size="12" lengthAdjust="spacingAndGlyphs" textLength="95" x="972" y="934.6855">go to maximum</text><rect fill="#FEFECE" filter="url(#frv0pmen396nw)" height="64.2344" rx="12.5" ry="12.5" style="stroke: #A80036; stroke-width: 1.5;" width="151" x="1100" y="885.25"/><line style="stroke: #A80036; stroke-width: 1.5;" x1="1100" x2="1251" y1="911.5469" y2="911.5469"/><text fill="#000000" font-family="sans-serif" font-size="14" lengthAdjust="spacingAndGlyphs" textLength="34" x="1158.5" y="903.2451">INIT3</text><text fill="#000000" font-family="sans-serif" font-size="12" lengthAdjust="spacingAndGlyphs" textLength="92" x="1105" y="927.6855">go to minimum</text><text fill="#000000" font-family="sans-serif" font-size="12" lengthAdjust="spacingAndGlyphs" textLength="131" x="1105" y="941.6543">while counting range</text><!--link i1 to i2--><path d="M948.7031,917.25 C953.0302,917.25 957.3573,917.25 961.6845,917.25 " fill="none" id="i1-i2" style="stroke: #A80036; stroke-width: 1.0;"/><polygon fill="#A80036" points="966.7641,917.25,957.7641,913.25,961.7641,917.25,957.7641,921.25,966.7641,917.25" style="stroke: #A80036; stroke-width: 1.0;"/><!--link i2 to i3--><path d="M1082.0098,917.25 C1086.297,917.25 1090.5843,917.25 1094.8715,917.25 " fill="none" id="i2-i3" style="stroke: #A80036; stroke-width: 1.0;"/><polygon fill="#A80036" points="1099.9044,917.25,1090.9044,913.25,1094.9044,917.25,1090.9044,921.25,1099.9044,917.25" style="stroke: #A80036; stroke-width: 1.0;"/><rect fill="#FEFECE" filter="url(#frv0pmen396nw)" height="64.2344" rx="12.5" ry="12.5" style="stroke: #A80036; stroke-width: 1.5;" width="127" x="381.5" y="704.9531"/><line style="stroke: #A80036; stroke-width: 1.5;" x1="381.5" x2="508.5" y1="731.25" y2="731.25"/><text fill="#000000" font-family="sans-serif" font-size="14" lengthAdjust="spacingAndGlyphs" textLength="71" x="409.5" y="722.9482">STOP c=0</text><text fill="#000000" font-family="sans-serif" font-size="12" lengthAdjust="spacingAndGlyphs" textLength="57" x="386.5" y="747.3887">initialized</text><text fill="#000000" font-family="sans-serif" font-size="12" lengthAdjust="spacingAndGlyphs" textLength="107" x="386.5" y="761.3574">motor is stopped</text><rect fill="#FEFECE" filter="url(#frv0pmen396nw)" height="64.2344" rx="12.5" ry="12.5" style="stroke: #A80036; stroke-width: 1.5;" width="112" x="321" y="186.9531"/><line style="stroke: #A80036; stroke-width: 1.5;" x1="321" x2="433" y1="213.25" y2="213.25"/><text fill="#000000" font-family="sans-serif" font-size="14" lengthAdjust="spacingAndGlyphs" textLength="80" x="337" y="204.9482">GOMIN c=2</text><text fill="#000000" font-family="sans-serif" font-size="12" lengthAdjust="spacingAndGlyphs" textLength="57" x="326" y="229.3887">initialized</text><text fill="#000000" font-family="sans-serif" font-size="12" lengthAdjust="spacingAndGlyphs" textLength="92" x="326" y="243.3574">go to minimum</text><rect fill="#FEFECE" filter="url(#frv0pmen396nw)" height="64.2344" rx="12.5" ry="12.5" style="stroke: #A80036; stroke-width: 1.5;" width="115" x="112.5" y="1257.9531"/><line style="stroke: #A80036; stroke-width: 1.5;" x1="112.5" x2="227.5" y1="1284.25" y2="1284.25"/><text fill="#000000" font-family="sans-serif" font-size="14" lengthAdjust="spacingAndGlyphs" textLength="85" x="127.5" y="1275.9482">GOMAX c=3</text><text fill="#000000" font-family="sans-serif" font-size="12" lengthAdjust="spacingAndGlyphs" textLength="57" x="117.5" y="1300.3887">initialized</text><text fill="#000000" font-family="sans-serif" font-size="12" lengthAdjust="spacingAndGlyphs" textLength="95" x="117.5" y="1314.3574">go to maximum</text><rect fill="#FEFECE" filter="url(#frv0pmen396nw)" height="64.2344" rx="12.5" ry="12.5" style="stroke: #A80036; stroke-width: 1.5;" width="130" x="149" y="429.9531"/><line style="stroke: #A80036; stroke-width: 1.5;" x1="149" x2="279" y1="456.25" y2="456.25"/><text fill="#000000" font-family="sans-serif" font-size="14" lengthAdjust="spacingAndGlyphs" textLength="84" x="172" y="447.9482">GOTOP c=4</text><text fill="#000000" font-family="sans-serif" font-size="12" lengthAdjust="spacingAndGlyphs" textLength="57" x="154" y="472.3887">initialized</text><text fill="#000000" font-family="sans-serif" font-size="12" lengthAdjust="spacingAndGlyphs" textLength="110" x="154" y="486.3574">go to percentage</text><rect fill="#FEFECE" filter="url(#frv0pmen396nw)" height="78.2031" rx="12.5" ry="12.5" style="stroke: #A80036; stroke-width: 1.5;" width="145" x="408.5" y="1024.9531"/><line style="stroke: #A80036; stroke-width: 1.5;" x1="408.5" x2="553.5" y1="1051.25" y2="1051.25"/><text fill="#000000" font-family="sans-serif" font-size="14" lengthAdjust="spacingAndGlyphs" textLength="73" x="444.5" y="1042.9482">OSCIL c=5</text><text fill="#000000" font-family="sans-serif" font-size="12" lengthAdjust="spacingAndGlyphs" textLength="57" x="413.5" y="1067.3887">initialized</text><text fill="#000000" font-family="sans-serif" font-size="12" lengthAdjust="spacingAndGlyphs" textLength="52" x="413.5" y="1081.3574">oscillate</text><text fill="#000000" font-family="sans-serif" font-size="12" lengthAdjust="spacingAndGlyphs" textLength="125" x="413.5" y="1095.3262">continues until stop</text><!--link *start*uninit to su--><path d="M1017.2188,92.4531 C1027.1859,92.4531 1037.1531,92.4531 1047.1202,92.4531 " fill="none" id="*start*uninit-su" style="stroke: #A80036; stroke-width: 1.0;"/><polygon fill="#A80036" points="1052.3324,92.4531,1043.3324,88.4531,1047.3324,92.4531,1043.3324,96.4531,1052.3324,92.4531" style="stroke: #A80036; stroke-width: 1.0;"/><!--link su to su--><path d="M1179.9478,81.5947 C1199.3408,81.8668 1214.5,85.4863 1214.5,92.4531 C1214.5,98.7668 1202.0499,102.3313 1185.2814,103.1467 " fill="none" id="su-su" style="stroke: #A80036; stroke-width: 1.0;"/><polygon fill="#A80036" points="1179.9478,103.3115,1189.0672,107.0314,1184.9454,103.157,1188.8198,99.0352,1179.9478,103.3115" style="stroke: #A80036; stroke-width: 1.0;"/><text fill="#000000" font-family="sans-serif" font-size="13" lengthAdjust="spacingAndGlyphs" textLength="30" x="1225.5" y="82.02">c=0,</text><text fill="#000000" font-family="sans-serif" font-size="13" lengthAdjust="spacingAndGlyphs" textLength="40" x="1220.5" y="97.1528">ignore</text><text fill="#000000" font-family="sans-serif" font-size="13" lengthAdjust="spacingAndGlyphs" textLength="38" x="1221.5" y="112.2856">c=4,5</text><!--link su to i--><path d="M1148.8857,117.7174 C1162.4064,129.4079 1177.3563,144.1914 1188,159.9531 C1213.0646,197.0698 1327,516.5998 1327,532.4531 C1327,532.4531 1327,532.4531 1327,736.9531 C1327,783.9451 1297.2493,818.2299 1257.4264,843.0727 " fill="none" id="su-i" style="stroke: #A80036; stroke-width: 1.0;"/><polygon fill="#A80036" points="1253.0341,845.7509,1262.8007,844.4805,1257.303,843.1478,1258.6357,837.6502,1253.0341,845.7509" style="stroke: #A80036; stroke-width: 1.0;"/><text fill="#000000" font-family="sans-serif" font-size="13" lengthAdjust="spacingAndGlyphs" textLength="26" x="1316" y="466.52">c=1</text><!--link i to su--><path d="M929.0241,845.7819 C891.4136,818.9889 860,782.8675 860,736.9531 C860,218.9531 860,218.9531 860,218.9531 C860,176.1916 898.6687,180.8078 936,159.9531 C946.3875,154.1503 1001.0555,133.8674 1047.4487,117.037 " fill="none" id="i-su" style="stroke: #A80036; stroke-width: 1.0;"/><polygon fill="#A80036" points="1052.1972,115.3159,1042.3728,114.6223,1047.4965,117.0198,1045.099,122.1435,1052.1972,115.3159" style="stroke: #A80036; stroke-width: 1.0;"/><text fill="#000000" font-family="sans-serif" font-size="13" lengthAdjust="spacingAndGlyphs" textLength="26" x="861" y="466.52">c=0</text><!--link miu to su--><path d="M947.4482,315.3167 C942.1089,277.7744 937.7705,206.4994 971,159.9531 C980.957,146.0058 1015.0201,129.8164 1047.6292,116.7891 " fill="none" id="miu-su" style="stroke: #A80036; stroke-width: 1.0;"/><polygon fill="#A80036" points="1052.4268,114.8907,1042.5864,114.4832,1047.7776,116.7306,1045.5302,121.9218,1052.4268,114.8907" style="stroke: #A80036; stroke-width: 1.0;"/><text fill="#000000" font-family="sans-serif" font-size="13" lengthAdjust="spacingAndGlyphs" textLength="43" x="984.5" y="216.02">c=0 or</text><text fill="#000000" font-family="sans-serif" font-size="13" lengthAdjust="spacingAndGlyphs" textLength="68" x="972" y="231.1528">completed</text><!--link su to miu--><path d="M1108.1017,117.6119 C1097.1331,150.2368 1075.1781,208.0368 1045,250.9531 C1029.0625,273.6178 1006.8246,295.2679 988.0907,311.5959 " fill="none" id="su-miu" style="stroke: #A80036; stroke-width: 1.0;"/><polygon fill="#A80036" points="983.9045,315.2074,993.3319,312.3571,987.6903,311.9413,988.1061,306.2998,983.9045,315.2074" style="stroke: #A80036; stroke-width: 1.0;"/><text fill="#000000" font-family="sans-serif" font-size="13" lengthAdjust="spacingAndGlyphs" textLength="26" x="1093" y="223.52">c=2</text><!--link miu to i--><path d="M952.0835,365.5892 C952.5044,396.11 954.2624,449.0744 961,493.9531 C979.6356,618.0831 1015.4839,760.3353 1037.1225,840.7318 " fill="none" id="miu-i" style="stroke: #A80036; stroke-width: 1.0;"/><polygon fill="#A80036" points="1038.527,845.9371,1040.0443,836.2058,1037.2244,841.1098,1032.3205,838.2899,1038.527,845.9371" style="stroke: #A80036; stroke-width: 1.0;"/><text fill="#000000" font-family="sans-serif" font-size="13" lengthAdjust="spacingAndGlyphs" textLength="26" x="985" y="604.02">c=1</text><!--link miu to miu--><path d="M1008.43,329.5788 C1027.5954,329.5217 1043,333.1465 1043,340.4531 C1043,347.0747 1030.3484,350.6725 1013.7115,351.2464 " fill="none" id="miu-miu" style="stroke: #A80036; stroke-width: 1.0;"/><polygon fill="#A80036" points="1008.43,351.3274,1017.4904,355.1886,1013.4294,351.2506,1017.3674,347.1896,1008.43,351.3274" style="stroke: #A80036; stroke-width: 1.0;"/><text fill="#000000" font-family="sans-serif" font-size="13" lengthAdjust="spacingAndGlyphs" textLength="30" x="1054" y="330.02">c=2,</text><text fill="#000000" font-family="sans-serif" font-size="13" lengthAdjust="spacingAndGlyphs" textLength="40" x="1049" y="345.1528">ignore</text><text fill="#000000" font-family="sans-serif" font-size="13" lengthAdjust="spacingAndGlyphs" textLength="38" x="1050" y="360.2856">c=4,5</text><!--link miu to mau--><path d="M974.3236,365.4553 C983.5359,375.802 994.3055,387.9352 1004,398.9531 C1016.0694,412.6701 1021.7067,414.2222 1031,429.9531 C1057.8114,475.3371 1076.1586,534.2688 1085.588,569.3449 " fill="none" id="miu-mau" style="stroke: #A80036; stroke-width: 1.0;"/><polygon fill="#A80036" points="1086.9145,574.3425,1088.4717,564.6176,1085.6318,569.5099,1080.7394,566.6699,1086.9145,574.3425" style="stroke: #A80036; stroke-width: 1.0;"/><text fill="#000000" font-family="sans-serif" font-size="13" lengthAdjust="spacingAndGlyphs" textLength="26" x="1061" y="466.52">c=3</text><!--link miu to mau--><path d="M956.0965,370.4906 C961.4395,402.6636 972.8446,454.423 995,493.9531 C1012.4779,525.1376 1041.0084,554.4021 1062.79,574.1611 " fill="none" id="miu-mau" style="stroke: #A80036; stroke-width: 1.0;"/><polygon fill="#A80036" points="955.2903,365.5001,952.7769,375.0229,956.0877,370.4361,960.6745,373.747,955.2903,365.5001" style="stroke: #A80036; stroke-width: 1.0;"/><text fill="#000000" font-family="sans-serif" font-size="13" lengthAdjust="spacingAndGlyphs" textLength="26" x="996" y="466.52">c=2</text><!--link mau to su--><path d="M1097.9773,574.1721 C1110.5969,506.8116 1141.8868,317.4045 1128,159.9531 C1126.9209,147.7178 1124.7618,134.3783 1122.5688,122.8131 " fill="none" id="mau-su" style="stroke: #A80036; stroke-width: 1.0;"/><polygon fill="#A80036" points="1121.5626,117.6345,1119.3527,127.2323,1122.5163,122.5427,1127.2059,125.7063,1121.5626,117.6345" style="stroke: #A80036; stroke-width: 1.0;"/><text fill="#000000" font-family="sans-serif" font-size="13" lengthAdjust="spacingAndGlyphs" textLength="43" x="1142.5" y="337.52">c=0 or</text><text fill="#000000" font-family="sans-serif" font-size="13" lengthAdjust="spacingAndGlyphs" textLength="68" x="1130" y="352.6528">completed</text><!--link su to mau--><path d="M1134.1069,117.5651 C1166.5316,165.6165 1229.1451,274.2245 1207,368.9531 C1188.8725,446.496 1140.6603,527.8854 1113.0886,570.1145 " fill="none" id="su-mau" style="stroke: #A80036; stroke-width: 1.0;"/><polygon fill="#A80036" points="1110.323,574.3251,1118.6073,568.9987,1113.068,570.146,1111.9207,564.6067,1110.323,574.3251" style="stroke: #A80036; stroke-width: 1.0;"/><text fill="#000000" font-family="sans-serif" font-size="13" lengthAdjust="spacingAndGlyphs" textLength="26" x="1212" y="345.02">c=3</text><!--link mau to i--><path d="M1089.8903,624.4534 C1084.0684,671.2581 1071.3582,773.4418 1062.993,840.6937 " fill="none" id="mau-i" style="stroke: #A80036; stroke-width: 1.0;"/><polygon fill="#A80036" points="1062.3482,845.8771,1067.4287,837.4398,1062.9655,840.9154,1059.4899,836.4521,1062.3482,845.8771" style="stroke: #A80036; stroke-width: 1.0;"/><text fill="#000000" font-family="sans-serif" font-size="13" lengthAdjust="spacingAndGlyphs" textLength="26" x="1080" y="741.52">c=1</text><!--link mau to mau--><path d="M1150.8125,587.0781 C1170.0833,587.0781 1185.5,591.2031 1185.5,599.4531 C1185.5,606.9297 1172.8385,611.0184 1156.1213,611.7193 " fill="none" id="mau-mau" style="stroke: #A80036; stroke-width: 1.0;"/><polygon fill="#A80036" points="1150.8125,611.8281,1159.8926,615.6429,1155.8115,611.7257,1159.7287,607.6446,1150.8125,611.8281" style="stroke: #A80036; stroke-width: 1.0;"/><text fill="#000000" font-family="sans-serif" font-size="13" lengthAdjust="spacingAndGlyphs" textLength="30" x="1196.5" y="589.02">c=3,</text><text fill="#000000" font-family="sans-serif" font-size="13" lengthAdjust="spacingAndGlyphs" textLength="40" x="1191.5" y="604.1528">ignore</text><text fill="#000000" font-family="sans-serif" font-size="13" lengthAdjust="spacingAndGlyphs" textLength="38" x="1192.5" y="619.2856">c=4,5</text><!--link i to i--><path d="M1284.9049,891.7828 C1306.1269,894.5044 1319.5,898.8945 1319.5,904.9531 C1319.5,910.491 1308.3266,914.6349 1290.1988,917.3848 " fill="none" id="i-i" style="stroke: #A80036; stroke-width: 1.0;"/><polygon fill="#A80036" points="1284.9049,918.1234,1294.3713,920.8412,1289.8569,917.4324,1293.2657,912.918,1284.9049,918.1234" style="stroke: #A80036; stroke-width: 1.0;"/><text fill="#000000" font-family="sans-serif" font-size="13" lengthAdjust="spacingAndGlyphs" textLength="30" x="1330.5" y="894.52">c=1,</text><text fill="#000000" font-family="sans-serif" font-size="13" lengthAdjust="spacingAndGlyphs" textLength="40" x="1325.5" y="909.6528">ignore</text><text fill="#000000" font-family="sans-serif" font-size="13" lengthAdjust="spacingAndGlyphs" textLength="38" x="1326.5" y="924.7856">c=4,5</text><!--link i to si--><path d="M825.4561,872.6318 C752.5743,859.0226 672.398,840.5022 601,815.9531 C567.6179,804.4752 532.3765,787.1255 503.8519,771.6062 " fill="none" id="i-si" style="stroke: #A80036; stroke-width: 1.0;"/><polygon fill="#A80036" points="499.3329,769.1324,505.3066,776.9628,503.7187,771.5334,509.1481,769.9455,499.3329,769.1324" style="stroke: #A80036; stroke-width: 1.0;"/><text fill="#000000" font-family="sans-serif" font-size="13" lengthAdjust="spacingAndGlyphs" textLength="68" x="602" y="812.02">completed</text><!--link si to i--><path d="M508.9111,750.9507 C555.5988,761.9513 620.0744,778.764 675,798.9531 C691.6078,805.0577 694.3614,809.9328 711,815.9531 C745.8361,828.5578 783.2584,840.1465 820.1367,850.5021 " fill="none" id="si-i" style="stroke: #A80036; stroke-width: 1.0;"/><polygon fill="#A80036" points="825.1004,851.8895,817.5094,845.6144,820.285,850.5435,815.3558,853.3191,825.1004,851.8895" style="stroke: #A80036; stroke-width: 1.0;"/><text fill="#000000" font-family="sans-serif" font-size="13" lengthAdjust="spacingAndGlyphs" textLength="26" x="712" y="812.02">c=1</text><!--link mii to si--><path d="M386.351,251.0928 C403.6911,312.553 440.2282,451.2831 453,570.9531 C455.6884,596.1434 453.9278,602.6368 453,627.9531 C452.1288,651.7264 450.1921,678.3578 448.4425,699.3456 " fill="none" id="mii-si" style="stroke: #A80036; stroke-width: 1.0;"/><polygon fill="#A80036" points="448.0025,704.5548,452.7459,695.9235,448.4234,699.5726,444.7743,695.2501,448.0025,704.5548" style="stroke: #A80036; stroke-width: 1.0;"/><text fill="#000000" font-family="sans-serif" font-size="13" lengthAdjust="spacingAndGlyphs" textLength="43" x="456.5" y="459.02">c=0 or</text><text fill="#000000" font-family="sans-serif" font-size="13" lengthAdjust="spacingAndGlyphs" textLength="68" x="444" y="474.1528">completed</text><!--link si to mii--><path d="M464.2224,704.7991 C495.3398,648.5406 550.347,528.8231 520,429.9531 C498.8044,360.8981 446.4983,294.1189 411.3736,254.7895 " fill="none" id="si-mii" style="stroke: #A80036; stroke-width: 1.0;"/><polygon fill="#A80036" points="408.0297,251.07,411.0722,260.4372,411.3725,254.7883,417.0214,255.0886,408.0297,251.07" style="stroke: #A80036; stroke-width: 1.0;"/><text fill="#000000" font-family="sans-serif" font-size="13" lengthAdjust="spacingAndGlyphs" textLength="26" x="529" y="466.52">c=2</text><!--link mii to i--><path d="M433.1901,226.5615 C498.9161,236.4765 602.5115,255.5872 632,280.9531 C826.7801,448.5024 671.4113,632.2143 851,815.9531 C860.7423,825.9205 871.7891,834.846 883.5795,842.8253 " fill="none" id="mii-i" style="stroke: #A80036; stroke-width: 1.0;"/><polygon fill="#A80036" points="887.9559,845.7224,882.6592,837.4191,883.7867,842.9625,878.2433,844.0899,887.9559,845.7224" style="stroke: #A80036; stroke-width: 1.0;"/><text fill="#000000" font-family="sans-serif" font-size="13" lengthAdjust="spacingAndGlyphs" textLength="26" x="747" y="537.02">c=1</text><!--link mii to mai--><path d="M320.9192,246.7995 C260.2792,280.5499 167.4127,343.7883 131,429.9531 C71.9838,569.6054 112.4237,618.5922 93,768.9531 C80.0232,869.4081 60,893.1634 60,994.4531 C60,994.4531 60,994.4531 60,1188.4531 C60,1218.9124 83.0625,1242.7584 108.0676,1259.6613 " fill="none" id="mii-mai" style="stroke: #A80036; stroke-width: 1.0;"/><polygon fill="#A80036" points="112.4227,1262.525,107.1005,1254.238,108.245,1259.7779,102.7051,1260.9223,112.4227,1262.525" style="stroke: #A80036; stroke-width: 1.0;"/><text fill="#000000" font-family="sans-serif" font-size="13" lengthAdjust="spacingAndGlyphs" textLength="26" x="100" y="741.52">c=3</text><!--link mii to mai--><path d="M315.7042,229.3298 C222.7915,246.821 57,285.7027 57,340.4531 C57,340.4531 57,340.4531 57,666.4531 C57,813.012 23,847.8942 23,994.4531 C23,994.4531 23,994.4531 23,1188.4531 C23,1233.8877 71.1407,1260.561 112.3236,1275.0666 " fill="none" id="mii-mai" style="stroke: #A80036; stroke-width: 1.0;"/><polygon fill="#A80036" points="320.8941,228.3607,311.3128,226.0809,315.9791,229.2786,312.7813,233.9449,320.8941,228.3607" style="stroke: #A80036; stroke-width: 1.0;"/><text fill="#000000" font-family="sans-serif" font-size="13" lengthAdjust="spacingAndGlyphs" textLength="26" x="58" y="741.52">c=2</text><!--link mii to g--><path d="M325.5967,251.0968 C303.662,267.0556 279.3959,288.0448 263,311.9531 C239.4682,346.267 226.6114,392.6605 220.0457,424.7239 " fill="none" id="mii-g" style="stroke: #A80036; stroke-width: 1.0;"/><polygon fill="#A80036" points="219.0453,429.7428,224.7278,421.6986,220.0229,424.8393,216.8822,420.1345,219.0453,429.7428" style="stroke: #A80036; stroke-width: 1.0;"/><text fill="#000000" font-family="sans-serif" font-size="13" lengthAdjust="spacingAndGlyphs" textLength="26" x="264" y="345.02">c=4</text><!--link g to mii--><path d="M245.0735,429.8042 C260.9738,412.5136 280.0697,390.3875 295,368.9531 C320.5458,332.2787 344.4124,286.8453 359.7354,255.649 " fill="none" id="g-mii" style="stroke: #A80036; stroke-width: 1.0;"/><polygon fill="#A80036" points="361.9333,251.1524,354.3872,257.4815,359.7375,255.6445,361.5745,260.9947,361.9333,251.1524" style="stroke: #A80036; stroke-width: 1.0;"/><text fill="#000000" font-family="sans-serif" font-size="13" lengthAdjust="spacingAndGlyphs" textLength="26" x="331" y="345.02">c=2</text><!--link mii to mii--><path d="M433.43,207.3288 C452.5954,207.2678 468,211.1426 468,218.9531 C468,226.0314 455.3484,229.8773 438.7115,230.4908 " fill="none" id="mii-mii" style="stroke: #A80036; stroke-width: 1.0;"/><polygon fill="#A80036" points="433.43,230.5774,442.4944,234.4293,438.4293,230.4954,442.3632,226.4304,433.43,230.5774" style="stroke: #A80036; stroke-width: 1.0;"/><text fill="#000000" font-family="sans-serif" font-size="13" lengthAdjust="spacingAndGlyphs" textLength="26" x="474" y="223.52">c=5</text><!--link mai to si--><path d="M194.4103,1257.8543 C201.1142,1248.4444 208.1435,1237.9837 214,1227.9531 C263.329,1143.4654 384.6739,872.8622 428.7039,773.7654 " fill="none" id="mai-si" style="stroke: #A80036; stroke-width: 1.0;"/><polygon fill="#A80036" points="430.7415,769.1776,423.4325,775.779,428.7118,773.7471,430.7437,779.0265,430.7415,769.1776" style="stroke: #A80036; stroke-width: 1.0;"/><text fill="#000000" font-family="sans-serif" font-size="13" lengthAdjust="spacingAndGlyphs" textLength="43" x="328.5" y="1061.02">c=0 or</text><text fill="#000000" font-family="sans-serif" font-size="13" lengthAdjust="spacingAndGlyphs" textLength="68" x="316" y="1076.1528">completed</text><!--link si to mai--><path d="M405.3144,769.1702 C381.9794,789.4969 353.0258,817.2614 332,845.9531 C305.7417,881.7851 258.8613,983.4579 243,1024.9531 C212.7722,1104.0326 189.3821,1200.7733 177.8694,1252.7193 " fill="none" id="si-mai" style="stroke: #A80036; stroke-width: 1.0;"/><polygon fill="#A80036" points="176.7255,1257.9103,182.5688,1249.9822,177.8016,1253.0275,174.7563,1248.2603,176.7255,1257.9103" style="stroke: #A80036; stroke-width: 1.0;"/><text fill="#000000" font-family="sans-serif" font-size="13" lengthAdjust="spacingAndGlyphs" textLength="26" x="244" y="1068.52">c=3</text><!--link mai to i--><path d="M227.7808,1267.5785 C276.0206,1248.8497 346.5667,1221.3471 408,1196.9531 C511.7827,1155.7429 538.8036,1147.9534 641,1102.9531 C739.6591,1059.5104 849.679,1006.6787 931.4902,966.5184 " fill="none" id="mai-i" style="stroke: #A80036; stroke-width: 1.0;"/><polygon fill="#A80036" points="936.3455,964.1336,926.5039,964.5109,931.8576,966.3379,930.0307,971.6916,936.3455,964.1336" style="stroke: #A80036; stroke-width: 1.0;"/><text fill="#000000" font-family="sans-serif" font-size="13" lengthAdjust="spacingAndGlyphs" textLength="26" x="571" y="1146.02">c=1</text><!--link mai to g--><path d="M140.7938,1257.664 C134.3375,1248.6614 128.4088,1238.4528 125,1227.9531 C97.1405,1142.14 116.7872,1114.8007 125,1024.9531 C132.3639,944.3927 134.5885,923.3876 158,845.9531 C168.7752,810.3137 182.5498,805.2142 191,768.9531 C215.7478,662.7565 192.413,632.3778 204,523.9531 C204.8635,515.873 206.0718,507.2425 207.351,499.067 " fill="none" id="mai-g" style="stroke: #A80036; stroke-width: 1.0;"/><polygon fill="#A80036" points="208.1541,494.0444,202.7831,502.2998,207.3645,498.9817,210.6827,503.5632,208.1541,494.0444" style="stroke: #A80036; stroke-width: 1.0;"/><text fill="#000000" font-family="sans-serif" font-size="13" lengthAdjust="spacingAndGlyphs" textLength="26" x="159" y="909.52">c=4</text><!--link g to mai--><path d="M214.2416,494.0816 C214.4305,535.7905 214.3456,610.8343 212,674.9531 C203.9843,894.0646 181.8984,1156.3613 173.3969,1252.3846 " fill="none" id="g-mai" style="stroke: #A80036; stroke-width: 1.0;"/><polygon fill="#A80036" points="172.9295,1257.651,177.7097,1249.04,173.3716,1252.6706,169.741,1248.3326,172.9295,1257.651" style="stroke: #A80036; stroke-width: 1.0;"/><text fill="#000000" font-family="sans-serif" font-size="13" lengthAdjust="spacingAndGlyphs" textLength="26" x="205" y="909.52">c=3</text><!--link mai to mai--><path d="M227.8125,1278.3281 C247.0833,1278.3281 262.5,1282.2031 262.5,1289.9531 C262.5,1296.9765 249.8385,1300.8175 233.1213,1301.4759 " fill="none" id="mai-mai" style="stroke: #A80036; stroke-width: 1.0;"/><polygon fill="#A80036" points="227.8125,1301.5781,236.8879,1305.4041,232.8116,1301.4818,236.7338,1297.4056,227.8125,1301.5781" style="stroke: #A80036; stroke-width: 1.0;"/><text fill="#000000" font-family="sans-serif" font-size="13" lengthAdjust="spacingAndGlyphs" textLength="26" x="268.5" y="1294.52">c=5</text><!--link g to si--><path d="M259.3642,493.9676 C270.8998,503.0487 282.8831,513.364 293,523.9531 C346.5513,580.004 396.2463,655.9689 423.4329,700.3964 " fill="none" id="g-si" style="stroke: #A80036; stroke-width: 1.0;"/><polygon fill="#A80036" points="426.1536,704.8601,424.885,695.0933,423.5513,700.5907,418.0539,699.257,426.1536,704.8601" style="stroke: #A80036; stroke-width: 1.0;"/><text fill="#000000" font-family="sans-serif" font-size="13" lengthAdjust="spacingAndGlyphs" textLength="43" x="388.5" y="596.52">c=0 or</text><text fill="#000000" font-family="sans-serif" font-size="13" lengthAdjust="spacingAndGlyphs" textLength="68" x="376" y="611.6528">completed</text><!--link si to g--><path d="M390.185,704.7316 C360.4879,685.2827 324.7178,658.4018 299,627.9531 C265.9091,588.7749 241.2276,534.532 227.2166,498.8629 " fill="none" id="si-g" style="stroke: #A80036; stroke-width: 1.0;"/><polygon fill="#A80036" points="225.3941,494.1739,224.9261,504.0117,227.2054,498.8343,232.3827,501.1136,225.3941,494.1739" style="stroke: #A80036; stroke-width: 1.0;"/><text fill="#000000" font-family="sans-serif" font-size="13" lengthAdjust="spacingAndGlyphs" textLength="26" x="300" y="604.02">c=4</text><!--link g to i--><path d="M279.0281,476.1482 C389.1875,500.6005 603.3858,550.0506 632,570.9531 C736.0465,646.9583 685.4998,736.5794 787,815.9531 C800.1247,826.2167 814.4877,835.3237 829.5289,843.4003 " fill="none" id="g-i" style="stroke: #A80036; stroke-width: 1.0;"/><polygon fill="#A80036" points="834.218,845.8739,828.1241,838.1367,829.7956,843.541,824.3914,845.2125,834.218,845.8739" style="stroke: #A80036; stroke-width: 1.0;"/><text fill="#000000" font-family="sans-serif" font-size="13" lengthAdjust="spacingAndGlyphs" textLength="26" x="705" y="671.02">c=1</text><!--link g to g--><path d="M279.4009,450.3536 C298.8592,450.6999 314,454.5664 314,461.9531 C314,468.6473 301.565,472.4504 284.7508,473.3624 " fill="none" id="g-g" style="stroke: #A80036; stroke-width: 1.0;"/><polygon fill="#A80036" points="279.4009,473.5526,288.5374,477.2302,284.3977,473.3749,288.253,469.2353,279.4009,473.5526" style="stroke: #A80036; stroke-width: 1.0;"/><text fill="#000000" font-family="sans-serif" font-size="13" lengthAdjust="spacingAndGlyphs" textLength="40" x="320" y="459.02">ignore</text><text fill="#000000" font-family="sans-serif" font-size="13" lengthAdjust="spacingAndGlyphs" textLength="26" x="327" y="474.1528">c=5</text><!--link o to si--><path d="M452.3725,1024.7538 C442.6286,1009.1286 432.9529,990.4726 428,971.9531 C409.7987,903.8961 423.7815,821.0501 434.8823,774.1161 " fill="none" id="o-si" style="stroke: #A80036; stroke-width: 1.0;"/><polygon fill="#A80036" points="436.0826,769.1312,430.0868,776.9447,434.9121,773.9923,437.8645,778.8176,436.0826,769.1312" style="stroke: #A80036; stroke-width: 1.0;"/><text fill="#000000" font-family="sans-serif" font-size="13" lengthAdjust="spacingAndGlyphs" textLength="26" x="429" y="909.52">c=0</text><!--link si to o--><path d="M449.8091,769.3416 C452.9382,791.0002 456.983,820.1502 460,845.9531 C467.0224,906.013 473.4242,975.583 477.2664,1019.6685 " fill="none" id="si-o" style="stroke: #A80036; stroke-width: 1.0;"/><polygon fill="#A80036" points="477.7221,1024.916,480.9282,1015.6036,477.2894,1019.9348,472.9582,1016.296,477.7221,1024.916" style="stroke: #A80036; stroke-width: 1.0;"/><text fill="#000000" font-family="sans-serif" font-size="13" lengthAdjust="spacingAndGlyphs" textLength="26" x="474" y="909.52">c=4</text><!--link o to mii--><path d="M497.302,1024.7861 C536.909,923.9335 630.2389,647.9574 564,429.9531 C541.2316,355.0182 473.8754,291.3292 426.5609,254.1007 " fill="none" id="o-mii" style="stroke: #A80036; stroke-width: 1.0;"/><polygon fill="#A80036" points="422.6195,251.024,427.2528,259.715,426.5609,254.1006,432.1753,253.4087,422.6195,251.024" style="stroke: #A80036; stroke-width: 1.0;"/><text fill="#000000" font-family="sans-serif" font-size="13" lengthAdjust="spacingAndGlyphs" textLength="26" x="588" y="604.02">c=2</text><!--link o to mai--><path d="M448.0276,1103.2076 C416.1314,1139.289 364.9604,1192.4143 312,1227.9531 C287.6072,1244.3218 258.186,1258.0074 232.4649,1268.3205 " fill="none" id="o-mai" style="stroke: #A80036; stroke-width: 1.0;"/><polygon fill="#A80036" points="227.7073,1270.2068,237.548,1270.6078,232.3552,1268.3638,234.5992,1263.1711,227.7073,1270.2068" style="stroke: #A80036; stroke-width: 1.0;"/><text fill="#000000" font-family="sans-serif" font-size="13" lengthAdjust="spacingAndGlyphs" textLength="26" x="373" y="1193.02">c=3</text><!--link o to o--><path d="M553.6011,1051.2889 C573.4022,1051.929 588.5,1056.1504 588.5,1063.9531 C588.5,1071.0853 575.8857,1075.2252 558.5953,1076.3729 " fill="none" id="o-o" style="stroke: #A80036; stroke-width: 1.0;"/><polygon fill="#A80036" points="553.6011,1076.6173,562.7859,1080.1726,558.5951,1076.3729,562.3948,1072.1821,553.6011,1076.6173" style="stroke: #A80036; stroke-width: 1.0;"/><text fill="#000000" font-family="sans-serif" font-size="13" lengthAdjust="spacingAndGlyphs" textLength="40" x="594.5" y="1061.02">ignore</text><text fill="#000000" font-family="sans-serif" font-size="13" lengthAdjust="spacingAndGlyphs" textLength="26" x="601.5" y="1076.1528">c=4</text><!--
@startuml

skinparam BackgroundColor White|White

title OSC Motor Controller - State Diagram

state "uninitialized" as uninit {
	state "STOP c=0" as su : motor is stopped
	[*] -right-> su
	su -> su : c=0,\nignore\nc=4,5

	state "INIT c=1" as i {
		state "INIT1" as i1 : go to minimum
		state "INIT2" as i2 : go to maximum
		state "INIT3" as i3 : go to minimum\nwhile counting range
		i1 -right-> i2
		i2 -right-> i3
	}
	su - -> i : c=1
	i - -> su : c=0

	state "GOMIN c=2" as miu : go to minimum
	miu - -> su : c=0 or\ncompleted
	miu - -> i : c=1
	su - -> miu : c=2
	miu -> miu : c=2,\nignore\nc=4,5
	miu -down-> mau : c=3

	state "GOMAX c=3" as mau : go to maximum
	mau - -> su : c=0 or\ncompleted
	mau - -> i : c=1
	su - -> mau : c=3
	mau -> mau : c=3,\nignore\nc=4,5
	mau -up-> miu : c=2


	i -> i : c=1,\nignore\nc=4,5
}

state "initialized" as init {
	state "STOP c=0" as si : initialized\nmotor is stopped
	i - -> si : completed
	si - -> i : c=1

	state "GOMIN c=2" as mii : initialized\ngo to minimum
	mii - -> si : c=0 or\ncompleted
	mii - -> i : c=1
	si - -> mii : c=2
	mii -down-> mai : c=3
	mii -> g : c=4
	mii -> mii : c=5

	state "GOMAX c=3" as mai : initialized\ngo to maximum
	mai - -> si : c=0 or\ncompleted
	mai - -> i : c=1
	mai -up-> mii : c=2
	si - -> mai : c=3
	mai -> g : c=4
	mai -> mai : c=5

	state "GOTOP c=4" as g : initialized\ngo to percentage
	g - -> si : c=0 or\ncompleted
	g - -> i : c=1
	g - -> mii : c=2
	g - -> mai : c=3
	si - -> g : c=4
	g -> g : ignore\nc=5

	state "OSCIL c=5" as o : initialized\noscillate\ncontinues until stop
	o - -> si : c=0
	o - -> mii : c=2
	o - -> mai : c=3
	si - -> o : c=4
	o -> o : ignore\nc=4
}

@enduml

PlantUML version 1.2018.13(Mon Nov 26 18:11:51 CET 2018)
(GPL source distribution)
Java Runtime: OpenJDK Runtime Environment
JVM: OpenJDK 64-Bit Server VM
Java Version: 11.0.4+11-post-Ubuntu-1ubuntu219.04
Operating System: Linux
OS Version: 5.0.0-25-generic
Default Encoding: UTF-8
Language: en
Country: US
--></g></svg>